solid OpenSCAD_Model
  facet normal -1 0 0
    outer loop
      vertex 0 0 0
      vertex 0 60 3
      vertex 0 60 0
    endloop
  endfacet
  facet normal -1 -0 0
    outer loop
      vertex 0 60 3
      vertex 0 0 0
      vertex 0 0 3
    endloop
  endfacet
  facet normal 0 0 1
    outer loop
      vertex 51.15 8.85 3
      vertex 30.4635 5.42658 3
      vertex 31.5 4 3
    endloop
  endfacet
  facet normal 0 0 1
    outer loop
      vertex 28.7865 4.88168 3
      vertex 8.85 8.85 3
      vertex 28.7865 3.11832 3
    endloop
  endfacet
  facet normal 0 0 1
    outer loop
      vertex 30.4635 5.42658 3
      vertex 8.85 8.85 3
      vertex 28.7865 4.88168 3
    endloop
  endfacet
  facet normal -0 0 1
    outer loop
      vertex 8.85 8.85 3
      vertex 30.4635 5.42658 3
      vertex 51.15 8.85 3
    endloop
  endfacet
  facet normal 0 0 1
    outer loop
      vertex 60 60 3
      vertex 57.5 30 3
      vertex 60 0 3
    endloop
  endfacet
  facet normal 0 0 1
    outer loop
      vertex 60 60 3
      vertex 56.4635 31.4266 3
      vertex 57.5 30 3
    endloop
  endfacet
  facet normal -0 0 1
    outer loop
      vertex 51.15 51.15 3
      vertex 56.4635 31.4266 3
      vertex 60 60 3
    endloop
  endfacet
  facet normal 0 0 1
    outer loop
      vertex 54.7865 30.8817 3
      vertex 51.15 51.15 3
      vertex 54.7865 29.1183 3
    endloop
  endfacet
  facet normal 0 0 1
    outer loop
      vertex 56.4635 31.4266 3
      vertex 51.15 51.15 3
      vertex 54.7865 30.8817 3
    endloop
  endfacet
  facet normal 0 0 1
    outer loop
      vertex 60 60 3
      vertex 31.5 56 3
      vertex 51.15 51.15 3
    endloop
  endfacet
  facet normal 0 0 1
    outer loop
      vertex 60 60 3
      vertex 30.4635 57.4266 3
      vertex 31.5 56 3
    endloop
  endfacet
  facet normal 0 0 1
    outer loop
      vertex 28.7865 56.8817 3
      vertex 8.85 51.15 3
      vertex 28.7865 55.1183 3
    endloop
  endfacet
  facet normal 0 0 1
    outer loop
      vertex 0 60 3
      vertex 28.7865 56.8817 3
      vertex 30.4635 57.4266 3
    endloop
  endfacet
  facet normal 0 0 1
    outer loop
      vertex 8.85 51.15 3
      vertex 5.5 30 3
      vertex 8.85 8.85 3
    endloop
  endfacet
  facet normal 0 0 1
    outer loop
      vertex 8.85 51.15 3
      vertex 4.46352 31.4266 3
      vertex 5.5 30 3
    endloop
  endfacet
  facet normal 0 0 1
    outer loop
      vertex 8.85 51.15 3
      vertex 2.78647 30.8817 3
      vertex 4.46352 31.4266 3
    endloop
  endfacet
  facet normal 0 0 1
    outer loop
      vertex 2.78647 30.8817 3
      vertex 0 60 3
      vertex 2.78647 29.1183 3
    endloop
  endfacet
  facet normal 0 0 1
    outer loop
      vertex 8.85 51.15 3
      vertex 0 60 3
      vertex 2.78647 30.8817 3
    endloop
  endfacet
  facet normal 0 0 1
    outer loop
      vertex 28.7865 56.8817 3
      vertex 0 60 3
      vertex 8.85 51.15 3
    endloop
  endfacet
  facet normal -0 0 1
    outer loop
      vertex 0 60 3
      vertex 30.4635 57.4266 3
      vertex 60 60 3
    endloop
  endfacet
  facet normal -0 0 1
    outer loop
      vertex 56.4635 28.5734 3
      vertex 60 0 3
      vertex 57.5 30 3
    endloop
  endfacet
  facet normal 0 0 1
    outer loop
      vertex 51.15 8.85 3
      vertex 56.4635 28.5734 3
      vertex 54.7865 29.1183 3
    endloop
  endfacet
  facet normal 0 0 1
    outer loop
      vertex 51.15 8.85 3
      vertex 54.7865 29.1183 3
      vertex 51.15 51.15 3
    endloop
  endfacet
  facet normal 0 0 1
    outer loop
      vertex 56.4635 28.5734 3
      vertex 51.15 8.85 3
      vertex 60 0 3
    endloop
  endfacet
  facet normal -0 0 1
    outer loop
      vertex 31.5 4 3
      vertex 60 0 3
      vertex 51.15 8.85 3
    endloop
  endfacet
  facet normal -0 0 1
    outer loop
      vertex 30.4635 2.57341 3
      vertex 60 0 3
      vertex 31.5 4 3
    endloop
  endfacet
  facet normal 0 0 1
    outer loop
      vertex 0 0 3
      vertex 28.7865 3.11832 3
      vertex 8.85 8.85 3
    endloop
  endfacet
  facet normal -0 0 1
    outer loop
      vertex 4.46352 28.5734 3
      vertex 8.85 8.85 3
      vertex 5.5 30 3
    endloop
  endfacet
  facet normal 0 0 1
    outer loop
      vertex 2.78647 29.1183 3
      vertex 8.85 8.85 3
      vertex 4.46352 28.5734 3
    endloop
  endfacet
  facet normal 0 0 1
    outer loop
      vertex 30.4635 2.57341 3
      vertex 0 0 3
      vertex 60 0 3
    endloop
  endfacet
  facet normal 0 0 1
    outer loop
      vertex 28.7865 3.11832 3
      vertex 0 0 3
      vertex 30.4635 2.57341 3
    endloop
  endfacet
  facet normal 0 0 1
    outer loop
      vertex 2.78647 29.1183 3
      vertex 0 0 3
      vertex 8.85 8.85 3
    endloop
  endfacet
  facet normal 0 0 1
    outer loop
      vertex 0 0 3
      vertex 2.78647 29.1183 3
      vertex 0 60 3
    endloop
  endfacet
  facet normal -0 0 1
    outer loop
      vertex 30.4635 54.5734 3
      vertex 51.15 51.15 3
      vertex 31.5 56 3
    endloop
  endfacet
  facet normal 0 0 1
    outer loop
      vertex 30.4635 54.5734 3
      vertex 8.85 51.15 3
      vertex 51.15 51.15 3
    endloop
  endfacet
  facet normal 0 0 1
    outer loop
      vertex 8.85 51.15 3
      vertex 30.4635 54.5734 3
      vertex 28.7865 55.1183 3
    endloop
  endfacet
  facet normal 1 -0 0
    outer loop
      vertex 60 0 3
      vertex 60 60 0
      vertex 60 60 3
    endloop
  endfacet
  facet normal 1 0 0
    outer loop
      vertex 60 60 0
      vertex 60 0 3
      vertex 60 0 0
    endloop
  endfacet
  facet normal 0 0 -1
    outer loop
      vertex 51.15 51.15 0
      vertex 30.4635 54.5734 0
      vertex 31.5 56 0
    endloop
  endfacet
  facet normal -0 0 -1
    outer loop
      vertex 28.7865 55.1183 0
      vertex 8.85 51.15 0
      vertex 28.7865 56.8817 0
    endloop
  endfacet
  facet normal -0 0 -1
    outer loop
      vertex 30.4635 54.5734 0
      vertex 8.85 51.15 0
      vertex 28.7865 55.1183 0
    endloop
  endfacet
  facet normal 0 0 -1
    outer loop
      vertex 8.85 51.15 0
      vertex 30.4635 54.5734 0
      vertex 51.15 51.15 0
    endloop
  endfacet
  facet normal 0 0 -1
    outer loop
      vertex 60 0 0
      vertex 57.5 30 0
      vertex 60 60 0
    endloop
  endfacet
  facet normal 0 0 -1
    outer loop
      vertex 60 0 0
      vertex 56.4635 28.5734 0
      vertex 57.5 30 0
    endloop
  endfacet
  facet normal 0 0 -1
    outer loop
      vertex 51.15 8.85 0
      vertex 56.4635 28.5734 0
      vertex 60 0 0
    endloop
  endfacet
  facet normal -0 0 -1
    outer loop
      vertex 54.7865 29.1183 0
      vertex 51.15 8.85 0
      vertex 54.7865 30.8817 0
    endloop
  endfacet
  facet normal -0 0 -1
    outer loop
      vertex 56.4635 28.5734 0
      vertex 51.15 8.85 0
      vertex 54.7865 29.1183 0
    endloop
  endfacet
  facet normal 0 0 -1
    outer loop
      vertex 60 0 0
      vertex 31.5 4 0
      vertex 51.15 8.85 0
    endloop
  endfacet
  facet normal 0 0 -1
    outer loop
      vertex 60 0 0
      vertex 30.4635 2.57341 0
      vertex 31.5 4 0
    endloop
  endfacet
  facet normal 0 0 -1
    outer loop
      vertex 28.7865 3.11832 0
      vertex 8.85 8.85 0
      vertex 28.7865 4.88168 0
    endloop
  endfacet
  facet normal 0 0 -1
    outer loop
      vertex 0 0 0
      vertex 28.7865 3.11832 0
      vertex 30.4635 2.57341 0
    endloop
  endfacet
  facet normal 0 0 -1
    outer loop
      vertex 8.85 8.85 0
      vertex 5.5 30 0
      vertex 8.85 51.15 0
    endloop
  endfacet
  facet normal 0 0 -1
    outer loop
      vertex 8.85 8.85 0
      vertex 4.46352 28.5734 0
      vertex 5.5 30 0
    endloop
  endfacet
  facet normal 0 0 -1
    outer loop
      vertex 8.85 8.85 0
      vertex 2.78647 29.1183 0
      vertex 4.46352 28.5734 0
    endloop
  endfacet
  facet normal -0 0 -1
    outer loop
      vertex 2.78647 29.1183 0
      vertex 0 0 0
      vertex 2.78647 30.8817 0
    endloop
  endfacet
  facet normal -0 0 -1
    outer loop
      vertex 8.85 8.85 0
      vertex 0 0 0
      vertex 2.78647 29.1183 0
    endloop
  endfacet
  facet normal -0 0 -1
    outer loop
      vertex 28.7865 3.11832 0
      vertex 0 0 0
      vertex 8.85 8.85 0
    endloop
  endfacet
  facet normal 0 0 -1
    outer loop
      vertex 0 0 0
      vertex 30.4635 2.57341 0
      vertex 60 0 0
    endloop
  endfacet
  facet normal 0 0 -1
    outer loop
      vertex 56.4635 31.4266 0
      vertex 60 60 0
      vertex 57.5 30 0
    endloop
  endfacet
  facet normal 0 0 -1
    outer loop
      vertex 51.15 51.15 0
      vertex 56.4635 31.4266 0
      vertex 54.7865 30.8817 0
    endloop
  endfacet
  facet normal 0 0 -1
    outer loop
      vertex 51.15 51.15 0
      vertex 54.7865 30.8817 0
      vertex 51.15 8.85 0
    endloop
  endfacet
  facet normal 0 0 -1
    outer loop
      vertex 56.4635 31.4266 0
      vertex 51.15 51.15 0
      vertex 60 60 0
    endloop
  endfacet
  facet normal 0 0 -1
    outer loop
      vertex 31.5 56 0
      vertex 60 60 0
      vertex 51.15 51.15 0
    endloop
  endfacet
  facet normal 0 0 -1
    outer loop
      vertex 30.4635 57.4266 0
      vertex 60 60 0
      vertex 31.5 56 0
    endloop
  endfacet
  facet normal 0 0 -1
    outer loop
      vertex 0 60 0
      vertex 28.7865 56.8817 0
      vertex 8.85 51.15 0
    endloop
  endfacet
  facet normal 0 0 -1
    outer loop
      vertex 4.46352 31.4266 0
      vertex 8.85 51.15 0
      vertex 5.5 30 0
    endloop
  endfacet
  facet normal 0 0 -1
    outer loop
      vertex 2.78647 30.8817 0
      vertex 8.85 51.15 0
      vertex 4.46352 31.4266 0
    endloop
  endfacet
  facet normal 0 0 -1
    outer loop
      vertex 30.4635 57.4266 0
      vertex 0 60 0
      vertex 60 60 0
    endloop
  endfacet
  facet normal 0 0 -1
    outer loop
      vertex 28.7865 56.8817 0
      vertex 0 60 0
      vertex 30.4635 57.4266 0
    endloop
  endfacet
  facet normal 0 0 -1
    outer loop
      vertex 2.78647 30.8817 0
      vertex 0 60 0
      vertex 8.85 51.15 0
    endloop
  endfacet
  facet normal 0 0 -1
    outer loop
      vertex 0 60 0
      vertex 2.78647 30.8817 0
      vertex 0 0 0
    endloop
  endfacet
  facet normal 0 0 -1
    outer loop
      vertex 30.4635 5.42658 0
      vertex 51.15 8.85 0
      vertex 31.5 4 0
    endloop
  endfacet
  facet normal 0 0 -1
    outer loop
      vertex 30.4635 5.42658 0
      vertex 8.85 8.85 0
      vertex 51.15 8.85 0
    endloop
  endfacet
  facet normal 0 0 -1
    outer loop
      vertex 8.85 8.85 0
      vertex 30.4635 5.42658 0
      vertex 28.7865 4.88168 0
    endloop
  endfacet
  facet normal 0 -1 0
    outer loop
      vertex 0 0 0
      vertex 60 0 3
      vertex 0 0 3
    endloop
  endfacet
  facet normal 0 -1 -0
    outer loop
      vertex 60 0 3
      vertex 0 0 0
      vertex 60 0 0
    endloop
  endfacet
  facet normal 0 1 -0
    outer loop
      vertex 60 60 0
      vertex 0 60 3
      vertex 60 60 3
    endloop
  endfacet
  facet normal 0 1 0
    outer loop
      vertex 0 60 3
      vertex 60 60 0
      vertex 0 60 0
    endloop
  endfacet
  facet normal 1 -0 0
    outer loop
      vertex 8.85 8.85 3
      vertex 8.85 51.15 0
      vertex 8.85 51.15 3
    endloop
  endfacet
  facet normal 1 0 0
    outer loop
      vertex 8.85 51.15 0
      vertex 8.85 8.85 3
      vertex 8.85 8.85 0
    endloop
  endfacet
  facet normal -1 0 0
    outer loop
      vertex 51.15 8.85 0
      vertex 51.15 51.15 3
      vertex 51.15 51.15 0
    endloop
  endfacet
  facet normal -1 -0 0
    outer loop
      vertex 51.15 51.15 3
      vertex 51.15 8.85 0
      vertex 51.15 8.85 3
    endloop
  endfacet
  facet normal 0 -1 0
    outer loop
      vertex 8.85 51.15 0
      vertex 51.15 51.15 3
      vertex 8.85 51.15 3
    endloop
  endfacet
  facet normal 0 -1 -0
    outer loop
      vertex 51.15 51.15 3
      vertex 8.85 51.15 0
      vertex 51.15 51.15 0
    endloop
  endfacet
  facet normal 0 1 -0
    outer loop
      vertex 51.15 8.85 0
      vertex 8.85 8.85 3
      vertex 51.15 8.85 3
    endloop
  endfacet
  facet normal 0 1 0
    outer loop
      vertex 8.85 8.85 3
      vertex 51.15 8.85 0
      vertex 8.85 8.85 0
    endloop
  endfacet
  facet normal -0.809016 -0.587787 0
    outer loop
      vertex 31.5 56 0
      vertex 30.4635 57.4266 3
      vertex 30.4635 57.4266 0
    endloop
  endfacet
  facet normal -0.809016 -0.587787 0
    outer loop
      vertex 30.4635 57.4266 3
      vertex 31.5 56 0
      vertex 31.5 56 3
    endloop
  endfacet
  facet normal 1 -0 0
    outer loop
      vertex 28.7865 55.1183 3
      vertex 28.7865 56.8817 0
      vertex 28.7865 56.8817 3
    endloop
  endfacet
  facet normal 1 0 0
    outer loop
      vertex 28.7865 56.8817 0
      vertex 28.7865 55.1183 3
      vertex 28.7865 55.1183 0
    endloop
  endfacet
  facet normal 0.309017 -0.951056 0
    outer loop
      vertex 28.7865 56.8817 0
      vertex 30.4635 57.4266 3
      vertex 28.7865 56.8817 3
    endloop
  endfacet
  facet normal 0.309017 -0.951056 0
    outer loop
      vertex 30.4635 57.4266 3
      vertex 28.7865 56.8817 0
      vertex 30.4635 57.4266 0
    endloop
  endfacet
  facet normal -0.809017 0.587785 0
    outer loop
      vertex 30.4635 54.5734 0
      vertex 31.5 56 3
      vertex 31.5 56 0
    endloop
  endfacet
  facet normal -0.809017 0.587785 0
    outer loop
      vertex 31.5 56 3
      vertex 30.4635 54.5734 0
      vertex 30.4635 54.5734 3
    endloop
  endfacet
  facet normal 0.309017 0.951056 -0
    outer loop
      vertex 30.4635 54.5734 0
      vertex 28.7865 55.1183 3
      vertex 30.4635 54.5734 3
    endloop
  endfacet
  facet normal 0.309017 0.951056 0
    outer loop
      vertex 28.7865 55.1183 3
      vertex 30.4635 54.5734 0
      vertex 28.7865 55.1183 0
    endloop
  endfacet
  facet normal -0.809016 -0.587786 0
    outer loop
      vertex 31.5 4 0
      vertex 30.4635 5.42658 3
      vertex 30.4635 5.42658 0
    endloop
  endfacet
  facet normal -0.809016 -0.587786 0
    outer loop
      vertex 30.4635 5.42658 3
      vertex 31.5 4 0
      vertex 31.5 4 3
    endloop
  endfacet
  facet normal 1 -0 0
    outer loop
      vertex 28.7865 3.11832 3
      vertex 28.7865 4.88168 0
      vertex 28.7865 4.88168 3
    endloop
  endfacet
  facet normal 1 0 0
    outer loop
      vertex 28.7865 4.88168 0
      vertex 28.7865 3.11832 3
      vertex 28.7865 3.11832 0
    endloop
  endfacet
  facet normal 0.309017 -0.951056 0
    outer loop
      vertex 28.7865 4.88168 0
      vertex 30.4635 5.42658 3
      vertex 28.7865 4.88168 3
    endloop
  endfacet
  facet normal 0.309017 -0.951056 0
    outer loop
      vertex 30.4635 5.42658 3
      vertex 28.7865 4.88168 0
      vertex 30.4635 5.42658 0
    endloop
  endfacet
  facet normal 0.309017 0.951056 -0
    outer loop
      vertex 30.4635 2.57341 0
      vertex 28.7865 3.11832 3
      vertex 30.4635 2.57341 3
    endloop
  endfacet
  facet normal 0.309017 0.951056 0
    outer loop
      vertex 28.7865 3.11832 3
      vertex 30.4635 2.57341 0
      vertex 28.7865 3.11832 0
    endloop
  endfacet
  facet normal -0.809017 0.587786 0
    outer loop
      vertex 30.4635 2.57341 0
      vertex 31.5 4 3
      vertex 31.5 4 0
    endloop
  endfacet
  facet normal -0.809017 0.587786 0
    outer loop
      vertex 31.5 4 3
      vertex 30.4635 2.57341 0
      vertex 30.4635 2.57341 3
    endloop
  endfacet
  facet normal -0.809017 -0.587786 0
    outer loop
      vertex 5.5 30 0
      vertex 4.46352 31.4266 3
      vertex 4.46352 31.4266 0
    endloop
  endfacet
  facet normal -0.809017 -0.587786 0
    outer loop
      vertex 4.46352 31.4266 3
      vertex 5.5 30 0
      vertex 5.5 30 3
    endloop
  endfacet
  facet normal 1 -0 0
    outer loop
      vertex 2.78647 29.1183 3
      vertex 2.78647 30.8817 0
      vertex 2.78647 30.8817 3
    endloop
  endfacet
  facet normal 1 0 0
    outer loop
      vertex 2.78647 30.8817 0
      vertex 2.78647 29.1183 3
      vertex 2.78647 29.1183 0
    endloop
  endfacet
  facet normal 0.309017 -0.951057 0
    outer loop
      vertex 2.78647 30.8817 0
      vertex 4.46352 31.4266 3
      vertex 2.78647 30.8817 3
    endloop
  endfacet
  facet normal 0.309017 -0.951057 0
    outer loop
      vertex 4.46352 31.4266 3
      vertex 2.78647 30.8817 0
      vertex 4.46352 31.4266 0
    endloop
  endfacet
  facet normal 0.309017 0.951057 -0
    outer loop
      vertex 4.46352 28.5734 0
      vertex 2.78647 29.1183 3
      vertex 4.46352 28.5734 3
    endloop
  endfacet
  facet normal 0.309017 0.951057 0
    outer loop
      vertex 2.78647 29.1183 3
      vertex 4.46352 28.5734 0
      vertex 2.78647 29.1183 0
    endloop
  endfacet
  facet normal -0.809017 0.587785 0
    outer loop
      vertex 4.46352 28.5734 0
      vertex 5.5 30 3
      vertex 5.5 30 0
    endloop
  endfacet
  facet normal -0.809017 0.587785 0
    outer loop
      vertex 5.5 30 3
      vertex 4.46352 28.5734 0
      vertex 4.46352 28.5734 3
    endloop
  endfacet
  facet normal -0.809016 -0.587786 0
    outer loop
      vertex 57.5 30 0
      vertex 56.4635 31.4266 3
      vertex 56.4635 31.4266 0
    endloop
  endfacet
  facet normal -0.809016 -0.587786 0
    outer loop
      vertex 56.4635 31.4266 3
      vertex 57.5 30 0
      vertex 57.5 30 3
    endloop
  endfacet
  facet normal 1 -0 0
    outer loop
      vertex 54.7865 29.1183 3
      vertex 54.7865 30.8817 0
      vertex 54.7865 30.8817 3
    endloop
  endfacet
  facet normal 1 0 0
    outer loop
      vertex 54.7865 30.8817 0
      vertex 54.7865 29.1183 3
      vertex 54.7865 29.1183 0
    endloop
  endfacet
  facet normal 0.309017 -0.951056 0
    outer loop
      vertex 54.7865 30.8817 0
      vertex 56.4635 31.4266 3
      vertex 54.7865 30.8817 3
    endloop
  endfacet
  facet normal 0.309017 -0.951056 0
    outer loop
      vertex 56.4635 31.4266 3
      vertex 54.7865 30.8817 0
      vertex 56.4635 31.4266 0
    endloop
  endfacet
  facet normal 0.309017 0.951056 -0
    outer loop
      vertex 56.4635 28.5734 0
      vertex 54.7865 29.1183 3
      vertex 56.4635 28.5734 3
    endloop
  endfacet
  facet normal 0.309017 0.951056 0
    outer loop
      vertex 54.7865 29.1183 3
      vertex 56.4635 28.5734 0
      vertex 54.7865 29.1183 0
    endloop
  endfacet
  facet normal -0.809017 0.587785 0
    outer loop
      vertex 56.4635 28.5734 0
      vertex 57.5 30 3
      vertex 57.5 30 0
    endloop
  endfacet
  facet normal -0.809017 0.587785 0
    outer loop
      vertex 57.5 30 3
      vertex 56.4635 28.5734 0
      vertex 56.4635 28.5734 3
    endloop
  endfacet
endsolid OpenSCAD_Model
