solid OpenSCAD_Model
  facet normal 0.866025 0.5 0
    outer loop
      vertex 57.4064 42.2021 3
      vertex 54.2705 47.6336 0
      vertex 54.2705 47.6336 3
    endloop
  endfacet
  facet normal 0.866025 0.5 0
    outer loop
      vertex 54.2705 47.6336 0
      vertex 57.4064 42.2021 3
      vertex 57.4064 42.2021 0
    endloop
  endfacet
  facet normal 0 0 -1
    outer loop
      vertex 2.59364 42.2021 0
      vertex 13.2865 44.6183 0
      vertex 6.46352 31.4266 0
    endloop
  endfacet
  facet normal 0 0 -1
    outer loop
      vertex 13.2865 44.6183 0
      vertex 5.72949 47.6336 0
      vertex 9.92608 52.2943 0
    endloop
  endfacet
  facet normal 0 0 -1
    outer loop
      vertex 0.655572 36.2374 0
      vertex 6.46352 31.4266 0
      vertex 4.78647 30.8817 0
    endloop
  endfacet
  facet normal 0 0 -1
    outer loop
      vertex 0 30 0
      vertex 4.78647 29.1183 0
      vertex 0.655572 23.7626 0
    endloop
  endfacet
  facet normal -0 0 -1
    outer loop
      vertex 13.2865 44.6183 0
      vertex 2.59364 42.2021 0
      vertex 5.72949 47.6336 0
    endloop
  endfacet
  facet normal 0 0 -1
    outer loop
      vertex 4.78647 29.1183 0
      vertex 0 30 0
      vertex 4.78647 30.8817 0
    endloop
  endfacet
  facet normal 0 0 -1
    outer loop
      vertex 6.46352 31.4266 0
      vertex 0.655572 36.2374 0
      vertex 2.59364 42.2021 0
    endloop
  endfacet
  facet normal -0 0 -1
    outer loop
      vertex 4.78647 30.8817 0
      vertex 0 30 0
      vertex 0.655572 36.2374 0
    endloop
  endfacet
  facet normal 0 0 -1
    outer loop
      vertex 18.7513 27.609 0
      vertex 7.5 30 0
      vertex 18.5 30 0
    endloop
  endfacet
  facet normal 0 0 -1
    outer loop
      vertex 18.5 30 0
      vertex 14.9635 44.0734 0
      vertex 16 45.5 0
    endloop
  endfacet
  facet normal 0 0 -1
    outer loop
      vertex 7.5 30 0
      vertex 14.9635 15.9266 0
      vertex 13.2865 15.3817 0
    endloop
  endfacet
  facet normal 0 0 -1
    outer loop
      vertex 6.46352 31.4266 0
      vertex 18.5 30 0
      vertex 7.5 30 0
    endloop
  endfacet
  facet normal 0 0 -1
    outer loop
      vertex 33.1359 0.164343 0
      vertex 30.4635 4.57341 0
      vertex 31.5 6 0
    endloop
  endfacet
  facet normal 0 0 -1
    outer loop
      vertex 26.8641 0.164343 0
      vertex 30.4635 4.57341 0
      vertex 33.1359 0.164343 0
    endloop
  endfacet
  facet normal 0 0 -1
    outer loop
      vertex 20.7295 1.4683 0
      vertex 28.7865 5.11832 0
      vertex 26.8641 0.164343 0
    endloop
  endfacet
  facet normal -0 0 -1
    outer loop
      vertex 30.4635 4.57341 0
      vertex 26.8641 0.164343 0
      vertex 28.7865 5.11832 0
    endloop
  endfacet
  facet normal 0 -0 -1
    outer loop
      vertex 41.2487 27.609 0
      vertex 52.7865 29.1183 0
      vertex 40.5058 25.3225 0
    endloop
  endfacet
  facet normal 0 0 -1
    outer loop
      vertex 52.7865 30.8817 0
      vertex 45.9635 44.0734 0
      vertex 47 45.5 0
    endloop
  endfacet
  facet normal 0 0 -1
    outer loop
      vertex 39.3037 23.2405 0
      vertex 45.9635 15.9266 0
      vertex 44.2865 15.3817 0
    endloop
  endfacet
  facet normal 0 0 -1
    outer loop
      vertex 41.2487 32.391 0
      vertex 52.7865 30.8817 0
      vertex 41.5 30 0
    endloop
  endfacet
  facet normal -0 0 -1
    outer loop
      vertex 54.2705 47.6336 0
      vertex 47 45.5 0
      vertex 50.0739 52.2943 0
    endloop
  endfacet
  facet normal 0 0 -1
    outer loop
      vertex 45.9635 46.9266 0
      vertex 50.0739 52.2943 0
      vertex 47 45.5 0
    endloop
  endfacet
  facet normal 0 0 -1
    outer loop
      vertex 45.9635 46.9266 0
      vertex 45 55.9808 0
      vertex 50.0739 52.2943 0
    endloop
  endfacet
  facet normal 0 0 -1
    outer loop
      vertex 44.2865 46.3817 0
      vertex 45 55.9808 0
      vertex 45.9635 46.9266 0
    endloop
  endfacet
  facet normal 0 0 -1
    outer loop
      vertex 39.3037 36.7595 0
      vertex 45.9635 44.0734 0
      vertex 40.5058 34.6775 0
    endloop
  endfacet
  facet normal -0 0 -1
    outer loop
      vertex 45.9635 44.0734 0
      vertex 39.3037 36.7595 0
      vertex 44.2865 44.6183 0
    endloop
  endfacet
  facet normal 0 0 -1
    outer loop
      vertex 37.695 38.5462 0
      vertex 44.2865 44.6183 0
      vertex 39.3037 36.7595 0
    endloop
  endfacet
  facet normal 0 0 -1
    outer loop
      vertex 35.75 39.9593 0
      vertex 44.2865 44.6183 0
      vertex 37.695 38.5462 0
    endloop
  endfacet
  facet normal -0 0 -1
    outer loop
      vertex 44.2865 44.6183 0
      vertex 35.75 39.9593 0
      vertex 44.2865 46.3817 0
    endloop
  endfacet
  facet normal 0 0 -1
    outer loop
      vertex 33.5537 40.9371 0
      vertex 44.2865 46.3817 0
      vertex 35.75 39.9593 0
    endloop
  endfacet
  facet normal 0 -0 -1
    outer loop
      vertex 39.2705 58.5317 0
      vertex 44.2865 46.3817 0
      vertex 31.5 54 0
    endloop
  endfacet
  facet normal 0 0 -1
    outer loop
      vertex 30.4635 52.5734 0
      vertex 44.2865 46.3817 0
      vertex 33.5537 40.9371 0
    endloop
  endfacet
  facet normal 0 0 -1
    outer loop
      vertex 44.2865 46.3817 0
      vertex 39.2705 58.5317 0
      vertex 45 55.9808 0
    endloop
  endfacet
  facet normal -0 0 -1
    outer loop
      vertex 39.2705 58.5317 0
      vertex 31.5 54 0
      vertex 33.1359 59.8357 0
    endloop
  endfacet
  facet normal 0 0 -1
    outer loop
      vertex 30.4635 52.5734 0
      vertex 33.5537 40.9371 0
      vertex 31.2021 41.437 0
    endloop
  endfacet
  facet normal 0 0 -1
    outer loop
      vertex 44.2865 46.3817 0
      vertex 30.4635 52.5734 0
      vertex 31.5 54 0
    endloop
  endfacet
  facet normal 0 0 -1
    outer loop
      vertex 28.7979 41.437 0
      vertex 30.4635 52.5734 0
      vertex 31.2021 41.437 0
    endloop
  endfacet
  facet normal 0 0 -1
    outer loop
      vertex 28.7979 41.437 0
      vertex 28.7865 53.1183 0
      vertex 30.4635 52.5734 0
    endloop
  endfacet
  facet normal 0 0 -1
    outer loop
      vertex 20.7295 58.5317 0
      vertex 28.7865 54.8817 0
      vertex 28.7865 53.1183 0
    endloop
  endfacet
  facet normal 0 0 -1
    outer loop
      vertex 26.4463 40.9371 0
      vertex 28.7865 53.1183 0
      vertex 28.7979 41.437 0
    endloop
  endfacet
  facet normal 0 0 -1
    outer loop
      vertex 16 45.5 0
      vertex 28.7865 53.1183 0
      vertex 26.4463 40.9371 0
    endloop
  endfacet
  facet normal 0 0 -1
    outer loop
      vertex 16 45.5 0
      vertex 26.4463 40.9371 0
      vertex 24.25 39.9593 0
    endloop
  endfacet
  facet normal 0 0 -1
    outer loop
      vertex 16 45.5 0
      vertex 24.25 39.9593 0
      vertex 22.305 38.5462 0
    endloop
  endfacet
  facet normal 0 0 -1
    outer loop
      vertex 14.9635 46.9266 0
      vertex 28.7865 53.1183 0
      vertex 16 45.5 0
    endloop
  endfacet
  facet normal 0 0 -1
    outer loop
      vertex 16 45.5 0
      vertex 22.305 38.5462 0
      vertex 20.6963 36.7595 0
    endloop
  endfacet
  facet normal 0 0 -1
    outer loop
      vertex 16 45.5 0
      vertex 20.6963 36.7595 0
      vertex 19.4942 34.6775 0
    endloop
  endfacet
  facet normal 0 0 -1
    outer loop
      vertex 16 45.5 0
      vertex 19.4942 34.6775 0
      vertex 18.7513 32.391 0
    endloop
  endfacet
  facet normal 0 0 -1
    outer loop
      vertex 16 45.5 0
      vertex 18.7513 32.391 0
      vertex 18.5 30 0
    endloop
  endfacet
  facet normal 0 0 -1
    outer loop
      vertex 19.4942 25.3225 0
      vertex 7.5 30 0
      vertex 18.7513 27.609 0
    endloop
  endfacet
  facet normal 0 0 -1
    outer loop
      vertex 28.7865 54.8817 0
      vertex 20.7295 58.5317 0
      vertex 26.8641 59.8357 0
    endloop
  endfacet
  facet normal -0 0 -1
    outer loop
      vertex 28.7865 53.1183 0
      vertex 14.9635 46.9266 0
      vertex 20.7295 58.5317 0
    endloop
  endfacet
  facet normal 0 0 -1
    outer loop
      vertex 20.7295 58.5317 0
      vertex 14.9635 46.9266 0
      vertex 15 55.9808 0
    endloop
  endfacet
  facet normal 0 0 -1
    outer loop
      vertex 9.92608 52.2943 0
      vertex 14.9635 46.9266 0
      vertex 13.2865 46.3817 0
    endloop
  endfacet
  facet normal 0 0 -1
    outer loop
      vertex 14.9635 46.9266 0
      vertex 9.92608 52.2943 0
      vertex 15 55.9808 0
    endloop
  endfacet
  facet normal 0 0 -1
    outer loop
      vertex 13.2865 44.6183 0
      vertex 9.92608 52.2943 0
      vertex 13.2865 46.3817 0
    endloop
  endfacet
  facet normal -0 0 -1
    outer loop
      vertex 14.9635 44.0734 0
      vertex 6.46352 31.4266 0
      vertex 13.2865 44.6183 0
    endloop
  endfacet
  facet normal 0 0 -1
    outer loop
      vertex 9.92608 7.70566 0
      vertex 6.46352 28.5734 0
      vertex 7.5 30 0
    endloop
  endfacet
  facet normal 0 0 -1
    outer loop
      vertex 5.72949 12.3664 0
      vertex 6.46352 28.5734 0
      vertex 9.92608 7.70566 0
    endloop
  endfacet
  facet normal 0 0 -1
    outer loop
      vertex 2.59364 17.7979 0
      vertex 6.46352 28.5734 0
      vertex 5.72949 12.3664 0
    endloop
  endfacet
  facet normal -0 0 -1
    outer loop
      vertex 6.46352 28.5734 0
      vertex 0.655572 23.7626 0
      vertex 4.78647 29.1183 0
    endloop
  endfacet
  facet normal 0 0 -1
    outer loop
      vertex 0.655572 23.7626 0
      vertex 6.46352 28.5734 0
      vertex 2.59364 17.7979 0
    endloop
  endfacet
  facet normal 0 0 -1
    outer loop
      vertex 30.4635 55.4266 0
      vertex 33.1359 59.8357 0
      vertex 31.5 54 0
    endloop
  endfacet
  facet normal 0 0 -1
    outer loop
      vertex 26.8641 59.8357 0
      vertex 30.4635 55.4266 0
      vertex 28.7865 54.8817 0
    endloop
  endfacet
  facet normal 0 0 -1
    outer loop
      vertex 30.4635 55.4266 0
      vertex 26.8641 59.8357 0
      vertex 33.1359 59.8357 0
    endloop
  endfacet
  facet normal 0 0 -1
    outer loop
      vertex 54.4635 28.5734 0
      vertex 60 30 0
      vertex 59.3444 23.7626 0
    endloop
  endfacet
  facet normal 0 0 -1
    outer loop
      vertex 54.4635 28.5734 0
      vertex 59.3444 23.7626 0
      vertex 57.4064 17.7979 0
    endloop
  endfacet
  facet normal 0 0 -1
    outer loop
      vertex 54.4635 31.4266 0
      vertex 60 30 0
      vertex 55.5 30 0
    endloop
  endfacet
  facet normal 0 0 -1
    outer loop
      vertex 60 30 0
      vertex 54.4635 31.4266 0
      vertex 59.3444 36.2374 0
    endloop
  endfacet
  facet normal -0 0 -1
    outer loop
      vertex 60 30 0
      vertex 54.4635 28.5734 0
      vertex 55.5 30 0
    endloop
  endfacet
  facet normal 0 0 -1
    outer loop
      vertex 47 14.5 0
      vertex 57.4064 17.7979 0
      vertex 54.2705 12.3664 0
    endloop
  endfacet
  facet normal 0 0 -1
    outer loop
      vertex 45.9635 15.9266 0
      vertex 57.4064 17.7979 0
      vertex 47 14.5 0
    endloop
  endfacet
  facet normal 0 0 -1
    outer loop
      vertex 57.4064 17.7979 0
      vertex 52.7865 29.1183 0
      vertex 54.4635 28.5734 0
    endloop
  endfacet
  facet normal 0 0 -1
    outer loop
      vertex 47 14.5 0
      vertex 54.2705 12.3664 0
      vertex 50.0739 7.70566 0
    endloop
  endfacet
  facet normal -0 0 -1
    outer loop
      vertex 59.3444 36.2374 0
      vertex 54.4635 31.4266 0
      vertex 57.4064 42.2021 0
    endloop
  endfacet
  facet normal 0 0 -1
    outer loop
      vertex 52.7865 30.8817 0
      vertex 57.4064 42.2021 0
      vertex 54.4635 31.4266 0
    endloop
  endfacet
  facet normal 0 0 -1
    outer loop
      vertex 47 45.5 0
      vertex 57.4064 42.2021 0
      vertex 52.7865 30.8817 0
    endloop
  endfacet
  facet normal -0 0 -1
    outer loop
      vertex 57.4064 17.7979 0
      vertex 45.9635 15.9266 0
      vertex 52.7865 29.1183 0
    endloop
  endfacet
  facet normal 0 0 -1
    outer loop
      vertex 40.5058 25.3225 0
      vertex 52.7865 29.1183 0
      vertex 45.9635 15.9266 0
    endloop
  endfacet
  facet normal 0 0 -1
    outer loop
      vertex 57.4064 42.2021 0
      vertex 47 45.5 0
      vertex 54.2705 47.6336 0
    endloop
  endfacet
  facet normal 0 0 -1
    outer loop
      vertex 50.0739 7.70566 0
      vertex 45.9635 13.0734 0
      vertex 47 14.5 0
    endloop
  endfacet
  facet normal 0 0 -1
    outer loop
      vertex 45 4.01924 0
      vertex 45.9635 13.0734 0
      vertex 50.0739 7.70566 0
    endloop
  endfacet
  facet normal 0 0 -1
    outer loop
      vertex 45 4.01924 0
      vertex 44.2865 13.6183 0
      vertex 45.9635 13.0734 0
    endloop
  endfacet
  facet normal 0 0 -1
    outer loop
      vertex 35.75 20.0407 0
      vertex 44.2865 15.3817 0
      vertex 44.2865 13.6183 0
    endloop
  endfacet
  facet normal 0 0 -1
    outer loop
      vertex 40.5058 34.6775 0
      vertex 52.7865 30.8817 0
      vertex 41.2487 32.391 0
    endloop
  endfacet
  facet normal 0 0 -1
    outer loop
      vertex 52.7865 30.8817 0
      vertex 40.5058 34.6775 0
      vertex 45.9635 44.0734 0
    endloop
  endfacet
  facet normal 0 0 -1
    outer loop
      vertex 39.2705 1.4683 0
      vertex 44.2865 13.6183 0
      vertex 45 4.01924 0
    endloop
  endfacet
  facet normal 0 0 -1
    outer loop
      vertex 52.7865 29.1183 0
      vertex 41.5 30 0
      vertex 52.7865 30.8817 0
    endloop
  endfacet
  facet normal 0 -0 -1
    outer loop
      vertex 41.5 30 0
      vertex 52.7865 29.1183 0
      vertex 41.2487 27.609 0
    endloop
  endfacet
  facet normal 0 0 -1
    outer loop
      vertex 45.9635 15.9266 0
      vertex 39.3037 23.2405 0
      vertex 40.5058 25.3225 0
    endloop
  endfacet
  facet normal 0 0 -1
    outer loop
      vertex 44.2865 13.6183 0
      vertex 39.2705 1.4683 0
      vertex 31.5 6 0
    endloop
  endfacet
  facet normal 0 0 -1
    outer loop
      vertex 44.2865 15.3817 0
      vertex 37.695 21.4538 0
      vertex 39.3037 23.2405 0
    endloop
  endfacet
  facet normal 0 0 -1
    outer loop
      vertex 44.2865 15.3817 0
      vertex 35.75 20.0407 0
      vertex 37.695 21.4538 0
    endloop
  endfacet
  facet normal 0 0 -1
    outer loop
      vertex 30.4635 7.42658 0
      vertex 44.2865 13.6183 0
      vertex 31.5 6 0
    endloop
  endfacet
  facet normal 0 0 -1
    outer loop
      vertex 31.5 6 0
      vertex 39.2705 1.4683 0
      vertex 33.1359 0.164343 0
    endloop
  endfacet
  facet normal 0 0 -1
    outer loop
      vertex 44.2865 13.6183 0
      vertex 33.5537 19.0629 0
      vertex 35.75 20.0407 0
    endloop
  endfacet
  facet normal -0 0 -1
    outer loop
      vertex 44.2865 13.6183 0
      vertex 30.4635 7.42658 0
      vertex 33.5537 19.0629 0
    endloop
  endfacet
  facet normal 0 0 -1
    outer loop
      vertex 33.5537 19.0629 0
      vertex 30.4635 7.42658 0
      vertex 31.2021 18.563 0
    endloop
  endfacet
  facet normal 0 0 -1
    outer loop
      vertex 30.4635 7.42658 0
      vertex 28.7979 18.563 0
      vertex 31.2021 18.563 0
    endloop
  endfacet
  facet normal 0 0 -1
    outer loop
      vertex 28.7865 6.88168 0
      vertex 28.7979 18.563 0
      vertex 30.4635 7.42658 0
    endloop
  endfacet
  facet normal -0 0 -1
    outer loop
      vertex 28.7865 5.11832 0
      vertex 20.7295 1.4683 0
      vertex 28.7865 6.88168 0
    endloop
  endfacet
  facet normal 0 0 -1
    outer loop
      vertex 28.7865 6.88168 0
      vertex 26.4463 19.0629 0
      vertex 28.7979 18.563 0
    endloop
  endfacet
  facet normal 0 0 -1
    outer loop
      vertex 14.9635 13.0734 0
      vertex 28.7865 6.88168 0
      vertex 20.7295 1.4683 0
    endloop
  endfacet
  facet normal 0 0 -1
    outer loop
      vertex 28.7865 6.88168 0
      vertex 16 14.5 0
      vertex 26.4463 19.0629 0
    endloop
  endfacet
  facet normal -0 0 -1
    outer loop
      vertex 26.4463 19.0629 0
      vertex 16 14.5 0
      vertex 24.25 20.0407 0
    endloop
  endfacet
  facet normal -0 0 -1
    outer loop
      vertex 24.25 20.0407 0
      vertex 16 14.5 0
      vertex 22.305 21.4538 0
    endloop
  endfacet
  facet normal 0 0 -1
    outer loop
      vertex 14.9635 15.9266 0
      vertex 22.305 21.4538 0
      vertex 16 14.5 0
    endloop
  endfacet
  facet normal -0 0 -1
    outer loop
      vertex 22.305 21.4538 0
      vertex 14.9635 15.9266 0
      vertex 20.6963 23.2405 0
    endloop
  endfacet
  facet normal -0 0 -1
    outer loop
      vertex 20.6963 23.2405 0
      vertex 14.9635 15.9266 0
      vertex 19.4942 25.3225 0
    endloop
  endfacet
  facet normal 0 0 -1
    outer loop
      vertex 7.5 30 0
      vertex 19.4942 25.3225 0
      vertex 14.9635 15.9266 0
    endloop
  endfacet
  facet normal 0 0 -1
    outer loop
      vertex 14.9635 13.0734 0
      vertex 20.7295 1.4683 0
      vertex 15 4.01924 0
    endloop
  endfacet
  facet normal 0 0 -1
    outer loop
      vertex 28.7865 6.88168 0
      vertex 14.9635 13.0734 0
      vertex 16 14.5 0
    endloop
  endfacet
  facet normal 0 0 -1
    outer loop
      vertex 9.92608 7.70566 0
      vertex 14.9635 13.0734 0
      vertex 15 4.01924 0
    endloop
  endfacet
  facet normal 0 0 -1
    outer loop
      vertex 9.92608 7.70566 0
      vertex 13.2865 15.3817 0
      vertex 13.2865 13.6183 0
    endloop
  endfacet
  facet normal 0 0 -1
    outer loop
      vertex 7.5 30 0
      vertex 13.2865 15.3817 0
      vertex 9.92608 7.70566 0
    endloop
  endfacet
  facet normal 0 0 -1
    outer loop
      vertex 18.5 30 0
      vertex 6.46352 31.4266 0
      vertex 14.9635 44.0734 0
    endloop
  endfacet
  facet normal -0 0 -1
    outer loop
      vertex 14.9635 13.0734 0
      vertex 9.92608 7.70566 0
      vertex 13.2865 13.6183 0
    endloop
  endfacet
  facet normal -0.994522 0.104528 0
    outer loop
      vertex 0 30 0
      vertex 0.655572 36.2374 3
      vertex 0.655572 36.2374 0
    endloop
  endfacet
  facet normal -0.994522 0.104528 0
    outer loop
      vertex 0.655572 36.2374 3
      vertex 0 30 0
      vertex 0 30 3
    endloop
  endfacet
  facet normal 0.743145 0.669131 0
    outer loop
      vertex 54.2705 47.6336 3
      vertex 50.0739 52.2943 0
      vertex 50.0739 52.2943 3
    endloop
  endfacet
  facet normal 0.743145 0.669131 0
    outer loop
      vertex 50.0739 52.2943 0
      vertex 54.2705 47.6336 3
      vertex 54.2705 47.6336 0
    endloop
  endfacet
  facet normal 0 1 -0
    outer loop
      vertex 33.1359 59.8357 0
      vertex 26.8641 59.8357 3
      vertex 33.1359 59.8357 3
    endloop
  endfacet
  facet normal 0 1 0
    outer loop
      vertex 26.8641 59.8357 3
      vertex 33.1359 59.8357 0
      vertex 26.8641 59.8357 0
    endloop
  endfacet
  facet normal 0.207911 0.978148 -0
    outer loop
      vertex 39.2705 58.5317 0
      vertex 33.1359 59.8357 3
      vertex 39.2705 58.5317 3
    endloop
  endfacet
  facet normal 0.207911 0.978148 0
    outer loop
      vertex 33.1359 59.8357 3
      vertex 39.2705 58.5317 0
      vertex 33.1359 59.8357 0
    endloop
  endfacet
  facet normal -0.406737 0.913545 0
    outer loop
      vertex 20.7295 58.5317 0
      vertex 15 55.9808 3
      vertex 20.7295 58.5317 3
    endloop
  endfacet
  facet normal -0.406737 0.913545 0
    outer loop
      vertex 15 55.9808 3
      vertex 20.7295 58.5317 0
      vertex 15 55.9808 0
    endloop
  endfacet
  facet normal -0.951057 0.309017 0
    outer loop
      vertex 0.655572 36.2374 0
      vertex 2.59364 42.2021 3
      vertex 2.59364 42.2021 0
    endloop
  endfacet
  facet normal -0.951057 0.309017 0
    outer loop
      vertex 2.59364 42.2021 3
      vertex 0.655572 36.2374 0
      vertex 0.655572 36.2374 3
    endloop
  endfacet
  facet normal 0.994522 -0.104528 0
    outer loop
      vertex 59.3444 23.7626 3
      vertex 60 30 0
      vertex 60 30 3
    endloop
  endfacet
  facet normal 0.994522 -0.104528 0
    outer loop
      vertex 60 30 0
      vertex 59.3444 23.7626 3
      vertex 59.3444 23.7626 0
    endloop
  endfacet
  facet normal 0.587786 0.809017 -0
    outer loop
      vertex 50.0739 52.2943 0
      vertex 45 55.9808 3
      vertex 50.0739 52.2943 3
    endloop
  endfacet
  facet normal 0.587786 0.809017 0
    outer loop
      vertex 45 55.9808 3
      vertex 50.0739 52.2943 0
      vertex 45 55.9808 0
    endloop
  endfacet
  facet normal -0.207911 0.978148 0
    outer loop
      vertex 26.8641 59.8357 0
      vertex 20.7295 58.5317 3
      vertex 26.8641 59.8357 3
    endloop
  endfacet
  facet normal -0.207911 0.978148 0
    outer loop
      vertex 20.7295 58.5317 3
      vertex 26.8641 59.8357 0
      vertex 20.7295 58.5317 0
    endloop
  endfacet
  facet normal 0.406737 0.913545 -0
    outer loop
      vertex 45 55.9808 0
      vertex 39.2705 58.5317 3
      vertex 45 55.9808 3
    endloop
  endfacet
  facet normal 0.406737 0.913545 0
    outer loop
      vertex 39.2705 58.5317 3
      vertex 45 55.9808 0
      vertex 39.2705 58.5317 0
    endloop
  endfacet
  facet normal -0.994522 -0.104528 0
    outer loop
      vertex 0.655572 23.7626 0
      vertex 0 30 3
      vertex 0 30 0
    endloop
  endfacet
  facet normal -0.994522 -0.104528 0
    outer loop
      vertex 0 30 3
      vertex 0.655572 23.7626 0
      vertex 0.655572 23.7626 3
    endloop
  endfacet
  facet normal -0.866025 0.5 0
    outer loop
      vertex 2.59364 42.2021 0
      vertex 5.72949 47.6336 3
      vertex 5.72949 47.6336 0
    endloop
  endfacet
  facet normal -0.866025 0.5 0
    outer loop
      vertex 5.72949 47.6336 3
      vertex 2.59364 42.2021 0
      vertex 2.59364 42.2021 3
    endloop
  endfacet
  facet normal -0.587786 0.809017 0
    outer loop
      vertex 15 55.9808 0
      vertex 9.92608 52.2943 3
      vertex 15 55.9808 3
    endloop
  endfacet
  facet normal -0.587786 0.809017 0
    outer loop
      vertex 9.92608 52.2943 3
      vertex 15 55.9808 0
      vertex 9.92608 52.2943 0
    endloop
  endfacet
  facet normal -0.743145 0.669131 0
    outer loop
      vertex 5.72949 47.6336 0
      vertex 9.92608 52.2943 3
      vertex 9.92608 52.2943 0
    endloop
  endfacet
  facet normal -0.743145 0.669131 0
    outer loop
      vertex 9.92608 52.2943 3
      vertex 5.72949 47.6336 0
      vertex 5.72949 47.6336 3
    endloop
  endfacet
  facet normal 0.994522 0.104528 0
    outer loop
      vertex 60 30 3
      vertex 59.3444 36.2374 0
      vertex 59.3444 36.2374 3
    endloop
  endfacet
  facet normal 0.994522 0.104528 0
    outer loop
      vertex 59.3444 36.2374 0
      vertex 60 30 3
      vertex 60 30 0
    endloop
  endfacet
  facet normal 0.951057 -0.309017 0
    outer loop
      vertex 57.4064 17.7979 3
      vertex 59.3444 23.7626 0
      vertex 59.3444 23.7626 3
    endloop
  endfacet
  facet normal 0.951057 -0.309017 0
    outer loop
      vertex 59.3444 23.7626 0
      vertex 57.4064 17.7979 3
      vertex 57.4064 17.7979 0
    endloop
  endfacet
  facet normal -0.406737 -0.913545 0
    outer loop
      vertex 15 4.01924 0
      vertex 20.7295 1.4683 3
      vertex 15 4.01924 3
    endloop
  endfacet
  facet normal -0.406737 -0.913545 -0
    outer loop
      vertex 20.7295 1.4683 3
      vertex 15 4.01924 0
      vertex 20.7295 1.4683 0
    endloop
  endfacet
  facet normal -0.743145 -0.669131 0
    outer loop
      vertex 9.92608 7.70566 0
      vertex 5.72949 12.3664 3
      vertex 5.72949 12.3664 0
    endloop
  endfacet
  facet normal -0.743145 -0.669131 0
    outer loop
      vertex 5.72949 12.3664 3
      vertex 9.92608 7.70566 0
      vertex 9.92608 7.70566 3
    endloop
  endfacet
  facet normal 0.406737 -0.913545 0
    outer loop
      vertex 39.2705 1.4683 0
      vertex 45 4.01924 3
      vertex 39.2705 1.4683 3
    endloop
  endfacet
  facet normal 0.406737 -0.913545 0
    outer loop
      vertex 45 4.01924 3
      vertex 39.2705 1.4683 0
      vertex 45 4.01924 0
    endloop
  endfacet
  facet normal 0.587785 -0.809017 0
    outer loop
      vertex 45 4.01924 0
      vertex 50.0739 7.70566 3
      vertex 45 4.01924 3
    endloop
  endfacet
  facet normal 0.587785 -0.809017 0
    outer loop
      vertex 50.0739 7.70566 3
      vertex 45 4.01924 0
      vertex 50.0739 7.70566 0
    endloop
  endfacet
  facet normal 0.951057 0.309017 0
    outer loop
      vertex 59.3444 36.2374 3
      vertex 57.4064 42.2021 0
      vertex 57.4064 42.2021 3
    endloop
  endfacet
  facet normal 0.951057 0.309017 0
    outer loop
      vertex 57.4064 42.2021 0
      vertex 59.3444 36.2374 3
      vertex 59.3444 36.2374 0
    endloop
  endfacet
  facet normal -0 0 1
    outer loop
      vertex 2.59364 17.7979 3
      vertex 13.2865 15.3817 3
      vertex 6.46352 28.5734 3
    endloop
  endfacet
  facet normal 0 0 1
    outer loop
      vertex 13.2865 15.3817 3
      vertex 5.72949 12.3664 3
      vertex 9.92608 7.70566 3
    endloop
  endfacet
  facet normal 0 0 1
    outer loop
      vertex 0.655572 23.7626 3
      vertex 6.46352 28.5734 3
      vertex 4.78647 29.1183 3
    endloop
  endfacet
  facet normal 0 0 1
    outer loop
      vertex 0 30 3
      vertex 4.78647 30.8817 3
      vertex 0.655572 36.2374 3
    endloop
  endfacet
  facet normal 0 0 1
    outer loop
      vertex 13.2865 15.3817 3
      vertex 2.59364 17.7979 3
      vertex 5.72949 12.3664 3
    endloop
  endfacet
  facet normal 0 0 1
    outer loop
      vertex 4.78647 30.8817 3
      vertex 0 30 3
      vertex 4.78647 29.1183 3
    endloop
  endfacet
  facet normal 0 0 1
    outer loop
      vertex 6.46352 28.5734 3
      vertex 0.655572 23.7626 3
      vertex 2.59364 17.7979 3
    endloop
  endfacet
  facet normal 0 0 1
    outer loop
      vertex 4.78647 29.1183 3
      vertex 0 30 3
      vertex 0.655572 23.7626 3
    endloop
  endfacet
  facet normal 0 0 1
    outer loop
      vertex 18.7513 32.391 3
      vertex 7.5 30 3
      vertex 18.5 30 3
    endloop
  endfacet
  facet normal 0 0 1
    outer loop
      vertex 18.5 30 3
      vertex 14.9635 15.9266 3
      vertex 16 14.5 3
    endloop
  endfacet
  facet normal 0 0 1
    outer loop
      vertex 7.5 30 3
      vertex 14.9635 44.0734 3
      vertex 13.2865 44.6183 3
    endloop
  endfacet
  facet normal 0 0 1
    outer loop
      vertex 6.46352 28.5734 3
      vertex 18.5 30 3
      vertex 7.5 30 3
    endloop
  endfacet
  facet normal 0 0 1
    outer loop
      vertex 33.1359 59.8357 3
      vertex 30.4635 55.4266 3
      vertex 31.5 54 3
    endloop
  endfacet
  facet normal -0 0 1
    outer loop
      vertex 26.8641 59.8357 3
      vertex 30.4635 55.4266 3
      vertex 33.1359 59.8357 3
    endloop
  endfacet
  facet normal -0 0 1
    outer loop
      vertex 20.7295 58.5317 3
      vertex 28.7865 54.8817 3
      vertex 26.8641 59.8357 3
    endloop
  endfacet
  facet normal 0 0 1
    outer loop
      vertex 30.4635 55.4266 3
      vertex 26.8641 59.8357 3
      vertex 28.7865 54.8817 3
    endloop
  endfacet
  facet normal -0 -0 1
    outer loop
      vertex 41.2487 32.391 3
      vertex 52.7865 30.8817 3
      vertex 40.5058 34.6775 3
    endloop
  endfacet
  facet normal 0 0 1
    outer loop
      vertex 52.7865 29.1183 3
      vertex 45.9635 15.9266 3
      vertex 47 14.5 3
    endloop
  endfacet
  facet normal 0 0 1
    outer loop
      vertex 39.3037 36.7595 3
      vertex 45.9635 44.0734 3
      vertex 44.2865 44.6183 3
    endloop
  endfacet
  facet normal 0 0 1
    outer loop
      vertex 41.2487 27.609 3
      vertex 52.7865 29.1183 3
      vertex 41.5 30 3
    endloop
  endfacet
  facet normal 0 0 1
    outer loop
      vertex 54.2705 12.3664 3
      vertex 47 14.5 3
      vertex 50.0739 7.70566 3
    endloop
  endfacet
  facet normal -0 0 1
    outer loop
      vertex 45.9635 13.0734 3
      vertex 50.0739 7.70566 3
      vertex 47 14.5 3
    endloop
  endfacet
  facet normal 0 0 1
    outer loop
      vertex 45.9635 13.0734 3
      vertex 45 4.01924 3
      vertex 50.0739 7.70566 3
    endloop
  endfacet
  facet normal 0 0 1
    outer loop
      vertex 44.2865 13.6183 3
      vertex 45 4.01924 3
      vertex 45.9635 13.0734 3
    endloop
  endfacet
  facet normal -0 0 1
    outer loop
      vertex 39.3037 23.2405 3
      vertex 45.9635 15.9266 3
      vertex 40.5058 25.3225 3
    endloop
  endfacet
  facet normal 0 0 1
    outer loop
      vertex 45.9635 15.9266 3
      vertex 39.3037 23.2405 3
      vertex 44.2865 15.3817 3
    endloop
  endfacet
  facet normal -0 0 1
    outer loop
      vertex 37.695 21.4538 3
      vertex 44.2865 15.3817 3
      vertex 39.3037 23.2405 3
    endloop
  endfacet
  facet normal -0 0 1
    outer loop
      vertex 35.75 20.0407 3
      vertex 44.2865 15.3817 3
      vertex 37.695 21.4538 3
    endloop
  endfacet
  facet normal 0 0 1
    outer loop
      vertex 44.2865 15.3817 3
      vertex 35.75 20.0407 3
      vertex 44.2865 13.6183 3
    endloop
  endfacet
  facet normal -0 0 1
    outer loop
      vertex 33.5537 19.0629 3
      vertex 44.2865 13.6183 3
      vertex 35.75 20.0407 3
    endloop
  endfacet
  facet normal 0 -0 1
    outer loop
      vertex 39.2705 1.4683 3
      vertex 44.2865 13.6183 3
      vertex 31.5 6 3
    endloop
  endfacet
  facet normal 0 0 1
    outer loop
      vertex 30.4635 7.42658 3
      vertex 44.2865 13.6183 3
      vertex 33.5537 19.0629 3
    endloop
  endfacet
  facet normal 0 0 1
    outer loop
      vertex 44.2865 13.6183 3
      vertex 39.2705 1.4683 3
      vertex 45 4.01924 3
    endloop
  endfacet
  facet normal 0 0 1
    outer loop
      vertex 39.2705 1.4683 3
      vertex 31.5 6 3
      vertex 33.1359 0.164343 3
    endloop
  endfacet
  facet normal 0 0 1
    outer loop
      vertex 30.4635 7.42658 3
      vertex 33.5537 19.0629 3
      vertex 31.2021 18.563 3
    endloop
  endfacet
  facet normal 0 0 1
    outer loop
      vertex 44.2865 13.6183 3
      vertex 30.4635 7.42658 3
      vertex 31.5 6 3
    endloop
  endfacet
  facet normal -0 0 1
    outer loop
      vertex 28.7979 18.563 3
      vertex 30.4635 7.42658 3
      vertex 31.2021 18.563 3
    endloop
  endfacet
  facet normal 0 0 1
    outer loop
      vertex 28.7979 18.563 3
      vertex 28.7865 6.88168 3
      vertex 30.4635 7.42658 3
    endloop
  endfacet
  facet normal 0 0 1
    outer loop
      vertex 20.7295 1.4683 3
      vertex 28.7865 5.11832 3
      vertex 28.7865 6.88168 3
    endloop
  endfacet
  facet normal 0 0 1
    outer loop
      vertex 26.4463 19.0629 3
      vertex 28.7865 6.88168 3
      vertex 28.7979 18.563 3
    endloop
  endfacet
  facet normal -0 0 1
    outer loop
      vertex 16 14.5 3
      vertex 28.7865 6.88168 3
      vertex 26.4463 19.0629 3
    endloop
  endfacet
  facet normal 0 0 1
    outer loop
      vertex 16 14.5 3
      vertex 26.4463 19.0629 3
      vertex 24.25 20.0407 3
    endloop
  endfacet
  facet normal 0 0 1
    outer loop
      vertex 16 14.5 3
      vertex 24.25 20.0407 3
      vertex 22.305 21.4538 3
    endloop
  endfacet
  facet normal -0 0 1
    outer loop
      vertex 14.9635 13.0734 3
      vertex 28.7865 6.88168 3
      vertex 16 14.5 3
    endloop
  endfacet
  facet normal 0 0 1
    outer loop
      vertex 16 14.5 3
      vertex 22.305 21.4538 3
      vertex 20.6963 23.2405 3
    endloop
  endfacet
  facet normal 0 0 1
    outer loop
      vertex 16 14.5 3
      vertex 20.6963 23.2405 3
      vertex 19.4942 25.3225 3
    endloop
  endfacet
  facet normal 0 0 1
    outer loop
      vertex 16 14.5 3
      vertex 19.4942 25.3225 3
      vertex 18.7513 27.609 3
    endloop
  endfacet
  facet normal 0 0 1
    outer loop
      vertex 16 14.5 3
      vertex 18.7513 27.609 3
      vertex 18.5 30 3
    endloop
  endfacet
  facet normal 0 0 1
    outer loop
      vertex 19.4942 34.6775 3
      vertex 7.5 30 3
      vertex 18.7513 32.391 3
    endloop
  endfacet
  facet normal 0 0 1
    outer loop
      vertex 28.7865 5.11832 3
      vertex 20.7295 1.4683 3
      vertex 26.8641 0.164343 3
    endloop
  endfacet
  facet normal 0 0 1
    outer loop
      vertex 28.7865 6.88168 3
      vertex 14.9635 13.0734 3
      vertex 20.7295 1.4683 3
    endloop
  endfacet
  facet normal 0 0 1
    outer loop
      vertex 20.7295 1.4683 3
      vertex 14.9635 13.0734 3
      vertex 15 4.01924 3
    endloop
  endfacet
  facet normal 0 0 1
    outer loop
      vertex 9.92608 7.70566 3
      vertex 14.9635 13.0734 3
      vertex 13.2865 13.6183 3
    endloop
  endfacet
  facet normal 0 0 1
    outer loop
      vertex 14.9635 13.0734 3
      vertex 9.92608 7.70566 3
      vertex 15 4.01924 3
    endloop
  endfacet
  facet normal 0 0 1
    outer loop
      vertex 13.2865 15.3817 3
      vertex 9.92608 7.70566 3
      vertex 13.2865 13.6183 3
    endloop
  endfacet
  facet normal 0 0 1
    outer loop
      vertex 14.9635 15.9266 3
      vertex 6.46352 28.5734 3
      vertex 13.2865 15.3817 3
    endloop
  endfacet
  facet normal 0 0 1
    outer loop
      vertex 9.92608 52.2943 3
      vertex 6.46352 31.4266 3
      vertex 7.5 30 3
    endloop
  endfacet
  facet normal -0 0 1
    outer loop
      vertex 5.72949 47.6336 3
      vertex 6.46352 31.4266 3
      vertex 9.92608 52.2943 3
    endloop
  endfacet
  facet normal -0 0 1
    outer loop
      vertex 2.59364 42.2021 3
      vertex 6.46352 31.4266 3
      vertex 5.72949 47.6336 3
    endloop
  endfacet
  facet normal 0 0 1
    outer loop
      vertex 6.46352 31.4266 3
      vertex 0.655572 36.2374 3
      vertex 4.78647 30.8817 3
    endloop
  endfacet
  facet normal -0 0 1
    outer loop
      vertex 0.655572 36.2374 3
      vertex 6.46352 31.4266 3
      vertex 2.59364 42.2021 3
    endloop
  endfacet
  facet normal -0 0 1
    outer loop
      vertex 30.4635 4.57341 3
      vertex 33.1359 0.164343 3
      vertex 31.5 6 3
    endloop
  endfacet
  facet normal 0 0 1
    outer loop
      vertex 26.8641 0.164343 3
      vertex 30.4635 4.57341 3
      vertex 28.7865 5.11832 3
    endloop
  endfacet
  facet normal 0 0 1
    outer loop
      vertex 30.4635 4.57341 3
      vertex 26.8641 0.164343 3
      vertex 33.1359 0.164343 3
    endloop
  endfacet
  facet normal -0 0 1
    outer loop
      vertex 54.4635 31.4266 3
      vertex 60 30 3
      vertex 59.3444 36.2374 3
    endloop
  endfacet
  facet normal 0 0 1
    outer loop
      vertex 54.4635 31.4266 3
      vertex 59.3444 36.2374 3
      vertex 57.4064 42.2021 3
    endloop
  endfacet
  facet normal 0 0 1
    outer loop
      vertex 54.4635 28.5734 3
      vertex 60 30 3
      vertex 55.5 30 3
    endloop
  endfacet
  facet normal 0 0 1
    outer loop
      vertex 60 30 3
      vertex 54.4635 28.5734 3
      vertex 59.3444 23.7626 3
    endloop
  endfacet
  facet normal 0 0 1
    outer loop
      vertex 60 30 3
      vertex 54.4635 31.4266 3
      vertex 55.5 30 3
    endloop
  endfacet
  facet normal -0 0 1
    outer loop
      vertex 47 45.5 3
      vertex 57.4064 42.2021 3
      vertex 54.2705 47.6336 3
    endloop
  endfacet
  facet normal -0 0 1
    outer loop
      vertex 45.9635 44.0734 3
      vertex 57.4064 42.2021 3
      vertex 47 45.5 3
    endloop
  endfacet
  facet normal 0 0 1
    outer loop
      vertex 57.4064 42.2021 3
      vertex 52.7865 30.8817 3
      vertex 54.4635 31.4266 3
    endloop
  endfacet
  facet normal 0 0 1
    outer loop
      vertex 47 45.5 3
      vertex 54.2705 47.6336 3
      vertex 50.0739 52.2943 3
    endloop
  endfacet
  facet normal 0 0 1
    outer loop
      vertex 59.3444 23.7626 3
      vertex 54.4635 28.5734 3
      vertex 57.4064 17.7979 3
    endloop
  endfacet
  facet normal 0 0 1
    outer loop
      vertex 52.7865 29.1183 3
      vertex 57.4064 17.7979 3
      vertex 54.4635 28.5734 3
    endloop
  endfacet
  facet normal 0 0 1
    outer loop
      vertex 47 14.5 3
      vertex 57.4064 17.7979 3
      vertex 52.7865 29.1183 3
    endloop
  endfacet
  facet normal 0 0 1
    outer loop
      vertex 57.4064 42.2021 3
      vertex 45.9635 44.0734 3
      vertex 52.7865 30.8817 3
    endloop
  endfacet
  facet normal -0 0 1
    outer loop
      vertex 40.5058 34.6775 3
      vertex 52.7865 30.8817 3
      vertex 45.9635 44.0734 3
    endloop
  endfacet
  facet normal 0 0 1
    outer loop
      vertex 57.4064 17.7979 3
      vertex 47 14.5 3
      vertex 54.2705 12.3664 3
    endloop
  endfacet
  facet normal 0 0 1
    outer loop
      vertex 50.0739 52.2943 3
      vertex 45.9635 46.9266 3
      vertex 47 45.5 3
    endloop
  endfacet
  facet normal 0 0 1
    outer loop
      vertex 45 55.9808 3
      vertex 45.9635 46.9266 3
      vertex 50.0739 52.2943 3
    endloop
  endfacet
  facet normal 0 0 1
    outer loop
      vertex 45 55.9808 3
      vertex 44.2865 46.3817 3
      vertex 45.9635 46.9266 3
    endloop
  endfacet
  facet normal 0 0 1
    outer loop
      vertex 35.75 39.9593 3
      vertex 44.2865 44.6183 3
      vertex 44.2865 46.3817 3
    endloop
  endfacet
  facet normal 0 0 1
    outer loop
      vertex 40.5058 25.3225 3
      vertex 52.7865 29.1183 3
      vertex 41.2487 27.609 3
    endloop
  endfacet
  facet normal 0 0 1
    outer loop
      vertex 52.7865 29.1183 3
      vertex 40.5058 25.3225 3
      vertex 45.9635 15.9266 3
    endloop
  endfacet
  facet normal 0 0 1
    outer loop
      vertex 39.2705 58.5317 3
      vertex 44.2865 46.3817 3
      vertex 45 55.9808 3
    endloop
  endfacet
  facet normal 0 0 1
    outer loop
      vertex 52.7865 30.8817 3
      vertex 41.5 30 3
      vertex 52.7865 29.1183 3
    endloop
  endfacet
  facet normal 0 -0 1
    outer loop
      vertex 41.5 30 3
      vertex 52.7865 30.8817 3
      vertex 41.2487 32.391 3
    endloop
  endfacet
  facet normal 0 0 1
    outer loop
      vertex 45.9635 44.0734 3
      vertex 39.3037 36.7595 3
      vertex 40.5058 34.6775 3
    endloop
  endfacet
  facet normal 0 0 1
    outer loop
      vertex 44.2865 46.3817 3
      vertex 39.2705 58.5317 3
      vertex 31.5 54 3
    endloop
  endfacet
  facet normal 0 0 1
    outer loop
      vertex 44.2865 44.6183 3
      vertex 37.695 38.5462 3
      vertex 39.3037 36.7595 3
    endloop
  endfacet
  facet normal 0 0 1
    outer loop
      vertex 44.2865 44.6183 3
      vertex 35.75 39.9593 3
      vertex 37.695 38.5462 3
    endloop
  endfacet
  facet normal -0 0 1
    outer loop
      vertex 30.4635 52.5734 3
      vertex 44.2865 46.3817 3
      vertex 31.5 54 3
    endloop
  endfacet
  facet normal 0 0 1
    outer loop
      vertex 31.5 54 3
      vertex 39.2705 58.5317 3
      vertex 33.1359 59.8357 3
    endloop
  endfacet
  facet normal 0 0 1
    outer loop
      vertex 44.2865 46.3817 3
      vertex 33.5537 40.9371 3
      vertex 35.75 39.9593 3
    endloop
  endfacet
  facet normal 0 0 1
    outer loop
      vertex 44.2865 46.3817 3
      vertex 30.4635 52.5734 3
      vertex 33.5537 40.9371 3
    endloop
  endfacet
  facet normal 0 0 1
    outer loop
      vertex 33.5537 40.9371 3
      vertex 30.4635 52.5734 3
      vertex 31.2021 41.437 3
    endloop
  endfacet
  facet normal 0 0 1
    outer loop
      vertex 30.4635 52.5734 3
      vertex 28.7979 41.437 3
      vertex 31.2021 41.437 3
    endloop
  endfacet
  facet normal 0 0 1
    outer loop
      vertex 28.7865 53.1183 3
      vertex 28.7979 41.437 3
      vertex 30.4635 52.5734 3
    endloop
  endfacet
  facet normal 0 0 1
    outer loop
      vertex 28.7865 54.8817 3
      vertex 20.7295 58.5317 3
      vertex 28.7865 53.1183 3
    endloop
  endfacet
  facet normal 0 0 1
    outer loop
      vertex 28.7865 53.1183 3
      vertex 26.4463 40.9371 3
      vertex 28.7979 41.437 3
    endloop
  endfacet
  facet normal 0 0 1
    outer loop
      vertex 14.9635 46.9266 3
      vertex 28.7865 53.1183 3
      vertex 20.7295 58.5317 3
    endloop
  endfacet
  facet normal 0 0 1
    outer loop
      vertex 28.7865 53.1183 3
      vertex 16 45.5 3
      vertex 26.4463 40.9371 3
    endloop
  endfacet
  facet normal 0 0 1
    outer loop
      vertex 26.4463 40.9371 3
      vertex 16 45.5 3
      vertex 24.25 39.9593 3
    endloop
  endfacet
  facet normal 0 0 1
    outer loop
      vertex 24.25 39.9593 3
      vertex 16 45.5 3
      vertex 22.305 38.5462 3
    endloop
  endfacet
  facet normal -0 0 1
    outer loop
      vertex 14.9635 44.0734 3
      vertex 22.305 38.5462 3
      vertex 16 45.5 3
    endloop
  endfacet
  facet normal 0 0 1
    outer loop
      vertex 22.305 38.5462 3
      vertex 14.9635 44.0734 3
      vertex 20.6963 36.7595 3
    endloop
  endfacet
  facet normal 0 0 1
    outer loop
      vertex 20.6963 36.7595 3
      vertex 14.9635 44.0734 3
      vertex 19.4942 34.6775 3
    endloop
  endfacet
  facet normal 0 0 1
    outer loop
      vertex 7.5 30 3
      vertex 19.4942 34.6775 3
      vertex 14.9635 44.0734 3
    endloop
  endfacet
  facet normal 0 0 1
    outer loop
      vertex 14.9635 46.9266 3
      vertex 20.7295 58.5317 3
      vertex 15 55.9808 3
    endloop
  endfacet
  facet normal 0 0 1
    outer loop
      vertex 28.7865 53.1183 3
      vertex 14.9635 46.9266 3
      vertex 16 45.5 3
    endloop
  endfacet
  facet normal -0 0 1
    outer loop
      vertex 9.92608 52.2943 3
      vertex 14.9635 46.9266 3
      vertex 15 55.9808 3
    endloop
  endfacet
  facet normal 0 0 1
    outer loop
      vertex 9.92608 52.2943 3
      vertex 13.2865 44.6183 3
      vertex 13.2865 46.3817 3
    endloop
  endfacet
  facet normal 0 0 1
    outer loop
      vertex 7.5 30 3
      vertex 13.2865 44.6183 3
      vertex 9.92608 52.2943 3
    endloop
  endfacet
  facet normal 0 0 1
    outer loop
      vertex 18.5 30 3
      vertex 6.46352 28.5734 3
      vertex 14.9635 15.9266 3
    endloop
  endfacet
  facet normal 0 0 1
    outer loop
      vertex 14.9635 46.9266 3
      vertex 9.92608 52.2943 3
      vertex 13.2865 46.3817 3
    endloop
  endfacet
  facet normal 0.866025 -0.5 0
    outer loop
      vertex 54.2705 12.3664 3
      vertex 57.4064 17.7979 0
      vertex 57.4064 17.7979 3
    endloop
  endfacet
  facet normal 0.866025 -0.5 0
    outer loop
      vertex 57.4064 17.7979 0
      vertex 54.2705 12.3664 3
      vertex 54.2705 12.3664 0
    endloop
  endfacet
  facet normal 0.207912 -0.978148 0
    outer loop
      vertex 33.1359 0.164343 0
      vertex 39.2705 1.4683 3
      vertex 33.1359 0.164343 3
    endloop
  endfacet
  facet normal 0.207912 -0.978148 0
    outer loop
      vertex 39.2705 1.4683 3
      vertex 33.1359 0.164343 0
      vertex 39.2705 1.4683 0
    endloop
  endfacet
  facet normal -0.951057 -0.309017 0
    outer loop
      vertex 2.59364 17.7979 0
      vertex 0.655572 23.7626 3
      vertex 0.655572 23.7626 0
    endloop
  endfacet
  facet normal -0.951057 -0.309017 0
    outer loop
      vertex 0.655572 23.7626 3
      vertex 2.59364 17.7979 0
      vertex 2.59364 17.7979 3
    endloop
  endfacet
  facet normal -0.587785 -0.809017 0
    outer loop
      vertex 9.92608 7.70566 0
      vertex 15 4.01924 3
      vertex 9.92608 7.70566 3
    endloop
  endfacet
  facet normal -0.587785 -0.809017 -0
    outer loop
      vertex 15 4.01924 3
      vertex 9.92608 7.70566 0
      vertex 15 4.01924 0
    endloop
  endfacet
  facet normal -0.207912 -0.978148 0
    outer loop
      vertex 20.7295 1.4683 0
      vertex 26.8641 0.164343 3
      vertex 20.7295 1.4683 3
    endloop
  endfacet
  facet normal -0.207912 -0.978148 -0
    outer loop
      vertex 26.8641 0.164343 3
      vertex 20.7295 1.4683 0
      vertex 26.8641 0.164343 0
    endloop
  endfacet
  facet normal -0.866025 -0.5 0
    outer loop
      vertex 5.72949 12.3664 0
      vertex 2.59364 17.7979 3
      vertex 2.59364 17.7979 0
    endloop
  endfacet
  facet normal -0.866025 -0.5 0
    outer loop
      vertex 2.59364 17.7979 3
      vertex 5.72949 12.3664 0
      vertex 5.72949 12.3664 3
    endloop
  endfacet
  facet normal 0.743145 -0.669131 0
    outer loop
      vertex 50.0739 7.70566 3
      vertex 54.2705 12.3664 0
      vertex 54.2705 12.3664 3
    endloop
  endfacet
  facet normal 0.743145 -0.669131 0
    outer loop
      vertex 54.2705 12.3664 0
      vertex 50.0739 7.70566 3
      vertex 50.0739 7.70566 0
    endloop
  endfacet
  facet normal 0 -1 0
    outer loop
      vertex 26.8641 0.164343 0
      vertex 33.1359 0.164343 3
      vertex 26.8641 0.164343 3
    endloop
  endfacet
  facet normal 0 -1 -0
    outer loop
      vertex 33.1359 0.164343 3
      vertex 26.8641 0.164343 0
      vertex 33.1359 0.164343 0
    endloop
  endfacet
  facet normal -0.809016 -0.587787 0
    outer loop
      vertex 47 45.5 0
      vertex 45.9635 46.9266 3
      vertex 45.9635 46.9266 0
    endloop
  endfacet
  facet normal -0.809016 -0.587787 0
    outer loop
      vertex 45.9635 46.9266 3
      vertex 47 45.5 0
      vertex 47 45.5 3
    endloop
  endfacet
  facet normal 1 -0 0
    outer loop
      vertex 44.2865 44.6183 3
      vertex 44.2865 46.3817 0
      vertex 44.2865 46.3817 3
    endloop
  endfacet
  facet normal 1 0 0
    outer loop
      vertex 44.2865 46.3817 0
      vertex 44.2865 44.6183 3
      vertex 44.2865 44.6183 0
    endloop
  endfacet
  facet normal 0.309017 -0.951056 0
    outer loop
      vertex 44.2865 46.3817 0
      vertex 45.9635 46.9266 3
      vertex 44.2865 46.3817 3
    endloop
  endfacet
  facet normal 0.309017 -0.951056 0
    outer loop
      vertex 45.9635 46.9266 3
      vertex 44.2865 46.3817 0
      vertex 45.9635 46.9266 0
    endloop
  endfacet
  facet normal -0.809017 0.587785 0
    outer loop
      vertex 45.9635 44.0734 0
      vertex 47 45.5 3
      vertex 47 45.5 0
    endloop
  endfacet
  facet normal -0.809017 0.587785 0
    outer loop
      vertex 47 45.5 3
      vertex 45.9635 44.0734 0
      vertex 45.9635 44.0734 3
    endloop
  endfacet
  facet normal 0.309017 0.951056 -0
    outer loop
      vertex 45.9635 44.0734 0
      vertex 44.2865 44.6183 3
      vertex 45.9635 44.0734 3
    endloop
  endfacet
  facet normal 0.309017 0.951056 0
    outer loop
      vertex 44.2865 44.6183 3
      vertex 45.9635 44.0734 0
      vertex 44.2865 44.6183 0
    endloop
  endfacet
  facet normal -0.809016 -0.587786 0
    outer loop
      vertex 47 14.5 0
      vertex 45.9635 15.9266 3
      vertex 45.9635 15.9266 0
    endloop
  endfacet
  facet normal -0.809016 -0.587786 0
    outer loop
      vertex 45.9635 15.9266 3
      vertex 47 14.5 0
      vertex 47 14.5 3
    endloop
  endfacet
  facet normal 1 -0 0
    outer loop
      vertex 44.2865 13.6183 3
      vertex 44.2865 15.3817 0
      vertex 44.2865 15.3817 3
    endloop
  endfacet
  facet normal 1 0 0
    outer loop
      vertex 44.2865 15.3817 0
      vertex 44.2865 13.6183 3
      vertex 44.2865 13.6183 0
    endloop
  endfacet
  facet normal 0.309017 -0.951056 0
    outer loop
      vertex 44.2865 15.3817 0
      vertex 45.9635 15.9266 3
      vertex 44.2865 15.3817 3
    endloop
  endfacet
  facet normal 0.309017 -0.951056 0
    outer loop
      vertex 45.9635 15.9266 3
      vertex 44.2865 15.3817 0
      vertex 45.9635 15.9266 0
    endloop
  endfacet
  facet normal -0.809017 0.587786 0
    outer loop
      vertex 45.9635 13.0734 0
      vertex 47 14.5 3
      vertex 47 14.5 0
    endloop
  endfacet
  facet normal -0.809017 0.587786 0
    outer loop
      vertex 47 14.5 3
      vertex 45.9635 13.0734 0
      vertex 45.9635 13.0734 3
    endloop
  endfacet
  facet normal 0.309017 0.951056 -0
    outer loop
      vertex 45.9635 13.0734 0
      vertex 44.2865 13.6183 3
      vertex 45.9635 13.0734 3
    endloop
  endfacet
  facet normal 0.309017 0.951056 0
    outer loop
      vertex 44.2865 13.6183 3
      vertex 45.9635 13.0734 0
      vertex 44.2865 13.6183 0
    endloop
  endfacet
  facet normal -0.809016 -0.587786 0
    outer loop
      vertex 16 45.5 0
      vertex 14.9635 46.9266 3
      vertex 14.9635 46.9266 0
    endloop
  endfacet
  facet normal -0.809016 -0.587786 0
    outer loop
      vertex 14.9635 46.9266 3
      vertex 16 45.5 0
      vertex 16 45.5 3
    endloop
  endfacet
  facet normal 1 -0 0
    outer loop
      vertex 13.2865 44.6183 3
      vertex 13.2865 46.3817 0
      vertex 13.2865 46.3817 3
    endloop
  endfacet
  facet normal 1 0 0
    outer loop
      vertex 13.2865 46.3817 0
      vertex 13.2865 44.6183 3
      vertex 13.2865 44.6183 0
    endloop
  endfacet
  facet normal 0.309017 -0.951057 0
    outer loop
      vertex 13.2865 46.3817 0
      vertex 14.9635 46.9266 3
      vertex 13.2865 46.3817 3
    endloop
  endfacet
  facet normal 0.309017 -0.951057 0
    outer loop
      vertex 14.9635 46.9266 3
      vertex 13.2865 46.3817 0
      vertex 14.9635 46.9266 0
    endloop
  endfacet
  facet normal 0.309017 0.951057 -0
    outer loop
      vertex 14.9635 44.0734 0
      vertex 13.2865 44.6183 3
      vertex 14.9635 44.0734 3
    endloop
  endfacet
  facet normal 0.309017 0.951057 0
    outer loop
      vertex 13.2865 44.6183 3
      vertex 14.9635 44.0734 0
      vertex 13.2865 44.6183 0
    endloop
  endfacet
  facet normal -0.809017 0.587785 0
    outer loop
      vertex 14.9635 44.0734 0
      vertex 16 45.5 3
      vertex 16 45.5 0
    endloop
  endfacet
  facet normal -0.809017 0.587785 0
    outer loop
      vertex 16 45.5 3
      vertex 14.9635 44.0734 0
      vertex 14.9635 44.0734 3
    endloop
  endfacet
  facet normal -0.809017 -0.587786 0
    outer loop
      vertex 16 14.5 0
      vertex 14.9635 15.9266 3
      vertex 14.9635 15.9266 0
    endloop
  endfacet
  facet normal -0.809017 -0.587786 0
    outer loop
      vertex 14.9635 15.9266 3
      vertex 16 14.5 0
      vertex 16 14.5 3
    endloop
  endfacet
  facet normal 1 -0 0
    outer loop
      vertex 13.2865 13.6183 3
      vertex 13.2865 15.3817 0
      vertex 13.2865 15.3817 3
    endloop
  endfacet
  facet normal 1 0 0
    outer loop
      vertex 13.2865 15.3817 0
      vertex 13.2865 13.6183 3
      vertex 13.2865 13.6183 0
    endloop
  endfacet
  facet normal 0.309017 -0.951057 0
    outer loop
      vertex 13.2865 15.3817 0
      vertex 14.9635 15.9266 3
      vertex 13.2865 15.3817 3
    endloop
  endfacet
  facet normal 0.309017 -0.951057 0
    outer loop
      vertex 14.9635 15.9266 3
      vertex 13.2865 15.3817 0
      vertex 14.9635 15.9266 0
    endloop
  endfacet
  facet normal -0.809017 0.587785 0
    outer loop
      vertex 14.9635 13.0734 0
      vertex 16 14.5 3
      vertex 16 14.5 0
    endloop
  endfacet
  facet normal -0.809017 0.587785 0
    outer loop
      vertex 16 14.5 3
      vertex 14.9635 13.0734 0
      vertex 14.9635 13.0734 3
    endloop
  endfacet
  facet normal 0.309017 0.951057 -0
    outer loop
      vertex 14.9635 13.0734 0
      vertex 13.2865 13.6183 3
      vertex 14.9635 13.0734 3
    endloop
  endfacet
  facet normal 0.309017 0.951057 0
    outer loop
      vertex 13.2865 13.6183 3
      vertex 14.9635 13.0734 0
      vertex 13.2865 13.6183 0
    endloop
  endfacet
  facet normal -0.809016 -0.587787 0
    outer loop
      vertex 31.5 54 0
      vertex 30.4635 55.4266 3
      vertex 30.4635 55.4266 0
    endloop
  endfacet
  facet normal -0.809016 -0.587787 0
    outer loop
      vertex 30.4635 55.4266 3
      vertex 31.5 54 0
      vertex 31.5 54 3
    endloop
  endfacet
  facet normal 1 -0 0
    outer loop
      vertex 28.7865 53.1183 3
      vertex 28.7865 54.8817 0
      vertex 28.7865 54.8817 3
    endloop
  endfacet
  facet normal 1 0 0
    outer loop
      vertex 28.7865 54.8817 0
      vertex 28.7865 53.1183 3
      vertex 28.7865 53.1183 0
    endloop
  endfacet
  facet normal 0.309017 -0.951056 0
    outer loop
      vertex 28.7865 54.8817 0
      vertex 30.4635 55.4266 3
      vertex 28.7865 54.8817 3
    endloop
  endfacet
  facet normal 0.309017 -0.951056 0
    outer loop
      vertex 30.4635 55.4266 3
      vertex 28.7865 54.8817 0
      vertex 30.4635 55.4266 0
    endloop
  endfacet
  facet normal 0.309017 0.951056 -0
    outer loop
      vertex 30.4635 52.5734 0
      vertex 28.7865 53.1183 3
      vertex 30.4635 52.5734 3
    endloop
  endfacet
  facet normal 0.309017 0.951056 0
    outer loop
      vertex 28.7865 53.1183 3
      vertex 30.4635 52.5734 0
      vertex 28.7865 53.1183 0
    endloop
  endfacet
  facet normal -0.809017 0.587785 0
    outer loop
      vertex 30.4635 52.5734 0
      vertex 31.5 54 3
      vertex 31.5 54 0
    endloop
  endfacet
  facet normal -0.809017 0.587785 0
    outer loop
      vertex 31.5 54 3
      vertex 30.4635 52.5734 0
      vertex 30.4635 52.5734 3
    endloop
  endfacet
  facet normal -0.809016 -0.587786 0
    outer loop
      vertex 31.5 6 0
      vertex 30.4635 7.42658 3
      vertex 30.4635 7.42658 0
    endloop
  endfacet
  facet normal -0.809016 -0.587786 0
    outer loop
      vertex 30.4635 7.42658 3
      vertex 31.5 6 0
      vertex 31.5 6 3
    endloop
  endfacet
  facet normal 1 -0 0
    outer loop
      vertex 28.7865 5.11832 3
      vertex 28.7865 6.88168 0
      vertex 28.7865 6.88168 3
    endloop
  endfacet
  facet normal 1 0 0
    outer loop
      vertex 28.7865 6.88168 0
      vertex 28.7865 5.11832 3
      vertex 28.7865 5.11832 0
    endloop
  endfacet
  facet normal 0.309017 -0.951056 0
    outer loop
      vertex 28.7865 6.88168 0
      vertex 30.4635 7.42658 3
      vertex 28.7865 6.88168 3
    endloop
  endfacet
  facet normal 0.309017 -0.951056 0
    outer loop
      vertex 30.4635 7.42658 3
      vertex 28.7865 6.88168 0
      vertex 30.4635 7.42658 0
    endloop
  endfacet
  facet normal 0.309017 0.951056 -0
    outer loop
      vertex 30.4635 4.57341 0
      vertex 28.7865 5.11832 3
      vertex 30.4635 4.57341 3
    endloop
  endfacet
  facet normal 0.309017 0.951056 0
    outer loop
      vertex 28.7865 5.11832 3
      vertex 30.4635 4.57341 0
      vertex 28.7865 5.11832 0
    endloop
  endfacet
  facet normal -0.809017 0.587786 0
    outer loop
      vertex 30.4635 4.57341 0
      vertex 31.5 6 3
      vertex 31.5 6 0
    endloop
  endfacet
  facet normal -0.809017 0.587786 0
    outer loop
      vertex 31.5 6 3
      vertex 30.4635 4.57341 0
      vertex 30.4635 4.57341 3
    endloop
  endfacet
  facet normal -0.809017 -0.587786 0
    outer loop
      vertex 7.5 30 0
      vertex 6.46352 31.4266 3
      vertex 6.46352 31.4266 0
    endloop
  endfacet
  facet normal -0.809017 -0.587786 0
    outer loop
      vertex 6.46352 31.4266 3
      vertex 7.5 30 0
      vertex 7.5 30 3
    endloop
  endfacet
  facet normal 1 -0 0
    outer loop
      vertex 4.78647 29.1183 3
      vertex 4.78647 30.8817 0
      vertex 4.78647 30.8817 3
    endloop
  endfacet
  facet normal 1 0 0
    outer loop
      vertex 4.78647 30.8817 0
      vertex 4.78647 29.1183 3
      vertex 4.78647 29.1183 0
    endloop
  endfacet
  facet normal 0.309017 -0.951057 0
    outer loop
      vertex 4.78647 30.8817 0
      vertex 6.46352 31.4266 3
      vertex 4.78647 30.8817 3
    endloop
  endfacet
  facet normal 0.309017 -0.951057 0
    outer loop
      vertex 6.46352 31.4266 3
      vertex 4.78647 30.8817 0
      vertex 6.46352 31.4266 0
    endloop
  endfacet
  facet normal -0.809017 0.587785 0
    outer loop
      vertex 6.46352 28.5734 0
      vertex 7.5 30 3
      vertex 7.5 30 0
    endloop
  endfacet
  facet normal -0.809017 0.587785 0
    outer loop
      vertex 7.5 30 3
      vertex 6.46352 28.5734 0
      vertex 6.46352 28.5734 3
    endloop
  endfacet
  facet normal 0.309017 0.951057 -0
    outer loop
      vertex 6.46352 28.5734 0
      vertex 4.78647 29.1183 3
      vertex 6.46352 28.5734 3
    endloop
  endfacet
  facet normal 0.309017 0.951057 0
    outer loop
      vertex 4.78647 29.1183 3
      vertex 6.46352 28.5734 0
      vertex 4.78647 29.1183 0
    endloop
  endfacet
  facet normal -0.809016 -0.587786 0
    outer loop
      vertex 55.5 30 0
      vertex 54.4635 31.4266 3
      vertex 54.4635 31.4266 0
    endloop
  endfacet
  facet normal -0.809016 -0.587786 0
    outer loop
      vertex 54.4635 31.4266 3
      vertex 55.5 30 0
      vertex 55.5 30 3
    endloop
  endfacet
  facet normal 1 -0 0
    outer loop
      vertex 52.7865 29.1183 3
      vertex 52.7865 30.8817 0
      vertex 52.7865 30.8817 3
    endloop
  endfacet
  facet normal 1 0 0
    outer loop
      vertex 52.7865 30.8817 0
      vertex 52.7865 29.1183 3
      vertex 52.7865 29.1183 0
    endloop
  endfacet
  facet normal 0.309017 -0.951056 0
    outer loop
      vertex 52.7865 30.8817 0
      vertex 54.4635 31.4266 3
      vertex 52.7865 30.8817 3
    endloop
  endfacet
  facet normal 0.309017 -0.951056 0
    outer loop
      vertex 54.4635 31.4266 3
      vertex 52.7865 30.8817 0
      vertex 54.4635 31.4266 0
    endloop
  endfacet
  facet normal -0.809017 0.587785 0
    outer loop
      vertex 54.4635 28.5734 0
      vertex 55.5 30 3
      vertex 55.5 30 0
    endloop
  endfacet
  facet normal -0.809017 0.587785 0
    outer loop
      vertex 55.5 30 3
      vertex 54.4635 28.5734 0
      vertex 54.4635 28.5734 3
    endloop
  endfacet
  facet normal 0.309017 0.951056 -0
    outer loop
      vertex 54.4635 28.5734 0
      vertex 52.7865 29.1183 3
      vertex 54.4635 28.5734 3
    endloop
  endfacet
  facet normal 0.309017 0.951056 0
    outer loop
      vertex 52.7865 29.1183 3
      vertex 54.4635 28.5734 0
      vertex 52.7865 29.1183 0
    endloop
  endfacet
  facet normal -0.994522 -0.104529 0
    outer loop
      vertex 41.5 30 0
      vertex 41.2487 32.391 3
      vertex 41.2487 32.391 0
    endloop
  endfacet
  facet normal -0.994522 -0.104529 0
    outer loop
      vertex 41.2487 32.391 3
      vertex 41.5 30 0
      vertex 41.5 30 3
    endloop
  endfacet
  facet normal 0 -1 0
    outer loop
      vertex 28.7979 41.437 0
      vertex 31.2021 41.437 3
      vertex 28.7979 41.437 3
    endloop
  endfacet
  facet normal 0 -1 -0
    outer loop
      vertex 31.2021 41.437 3
      vertex 28.7979 41.437 0
      vertex 31.2021 41.437 0
    endloop
  endfacet
  facet normal 0 1 -0
    outer loop
      vertex 31.2021 18.563 0
      vertex 28.7979 18.563 3
      vertex 31.2021 18.563 3
    endloop
  endfacet
  facet normal 0 1 0
    outer loop
      vertex 28.7979 18.563 3
      vertex 31.2021 18.563 0
      vertex 28.7979 18.563 0
    endloop
  endfacet
  facet normal -0.743145 -0.669131 0
    outer loop
      vertex 39.3037 36.7595 0
      vertex 37.695 38.5462 3
      vertex 37.695 38.5462 0
    endloop
  endfacet
  facet normal -0.743145 -0.669131 0
    outer loop
      vertex 37.695 38.5462 3
      vertex 39.3037 36.7595 0
      vertex 39.3037 36.7595 3
    endloop
  endfacet
  facet normal -0.951057 -0.309017 0
    outer loop
      vertex 41.2487 32.391 0
      vertex 40.5058 34.6775 3
      vertex 40.5058 34.6775 0
    endloop
  endfacet
  facet normal -0.951057 -0.309017 0
    outer loop
      vertex 40.5058 34.6775 3
      vertex 41.2487 32.391 0
      vertex 41.2487 32.391 3
    endloop
  endfacet
  facet normal 0.743145 -0.66913 0
    outer loop
      vertex 20.6963 36.7595 3
      vertex 22.305 38.5462 0
      vertex 22.305 38.5462 3
    endloop
  endfacet
  facet normal 0.743145 -0.66913 0
    outer loop
      vertex 22.305 38.5462 0
      vertex 20.6963 36.7595 3
      vertex 20.6963 36.7595 0
    endloop
  endfacet
  facet normal 0.406737 -0.913545 0
    outer loop
      vertex 24.25 39.9593 0
      vertex 26.4463 40.9371 3
      vertex 24.25 39.9593 3
    endloop
  endfacet
  facet normal 0.406737 -0.913545 0
    outer loop
      vertex 26.4463 40.9371 3
      vertex 24.25 39.9593 0
      vertex 26.4463 40.9371 0
    endloop
  endfacet
  facet normal -0.743144 0.669131 0
    outer loop
      vertex 37.695 21.4538 0
      vertex 39.3037 23.2405 3
      vertex 39.3037 23.2405 0
    endloop
  endfacet
  facet normal -0.743144 0.669131 0
    outer loop
      vertex 39.3037 23.2405 3
      vertex 37.695 21.4538 0
      vertex 37.695 21.4538 3
    endloop
  endfacet
  facet normal -0.866026 0.499999 0
    outer loop
      vertex 39.3037 23.2405 0
      vertex 40.5058 25.3225 3
      vertex 40.5058 25.3225 0
    endloop
  endfacet
  facet normal -0.866026 0.499999 0
    outer loop
      vertex 40.5058 25.3225 3
      vertex 39.3037 23.2405 0
      vertex 39.3037 23.2405 3
    endloop
  endfacet
  facet normal 0.951056 0.309017 0
    outer loop
      vertex 19.4942 25.3225 3
      vertex 18.7513 27.609 0
      vertex 18.7513 27.609 3
    endloop
  endfacet
  facet normal 0.951056 0.309017 0
    outer loop
      vertex 18.7513 27.609 0
      vertex 19.4942 25.3225 3
      vertex 19.4942 25.3225 0
    endloop
  endfacet
  facet normal -0.866026 -0.5 0
    outer loop
      vertex 40.5058 34.6775 0
      vertex 39.3037 36.7595 3
      vertex 39.3037 36.7595 0
    endloop
  endfacet
  facet normal -0.866026 -0.5 0
    outer loop
      vertex 39.3037 36.7595 3
      vertex 40.5058 34.6775 0
      vertex 40.5058 34.6775 3
    endloop
  endfacet
  facet normal -0.406737 -0.913545 0
    outer loop
      vertex 33.5537 40.9371 0
      vertex 35.75 39.9593 3
      vertex 33.5537 40.9371 3
    endloop
  endfacet
  facet normal -0.406737 -0.913545 -0
    outer loop
      vertex 35.75 39.9593 3
      vertex 33.5537 40.9371 0
      vertex 35.75 39.9593 0
    endloop
  endfacet
  facet normal -0.207911 -0.978148 0
    outer loop
      vertex 31.2021 41.437 0
      vertex 33.5537 40.9371 3
      vertex 31.2021 41.437 3
    endloop
  endfacet
  facet normal -0.207911 -0.978148 -0
    outer loop
      vertex 33.5537 40.9371 3
      vertex 31.2021 41.437 0
      vertex 33.5537 40.9371 0
    endloop
  endfacet
  facet normal -0.587785 -0.809017 0
    outer loop
      vertex 35.75 39.9593 0
      vertex 37.695 38.5462 3
      vertex 35.75 39.9593 3
    endloop
  endfacet
  facet normal -0.587785 -0.809017 -0
    outer loop
      vertex 37.695 38.5462 3
      vertex 35.75 39.9593 0
      vertex 37.695 38.5462 0
    endloop
  endfacet
  facet normal 0.951056 -0.309017 0
    outer loop
      vertex 18.7513 32.391 3
      vertex 19.4942 34.6775 0
      vertex 19.4942 34.6775 3
    endloop
  endfacet
  facet normal 0.951056 -0.309017 0
    outer loop
      vertex 19.4942 34.6775 0
      vertex 18.7513 32.391 3
      vertex 18.7513 32.391 0
    endloop
  endfacet
  facet normal 0.866025 -0.5 0
    outer loop
      vertex 19.4942 34.6775 3
      vertex 20.6963 36.7595 0
      vertex 20.6963 36.7595 3
    endloop
  endfacet
  facet normal 0.866025 -0.5 0
    outer loop
      vertex 20.6963 36.7595 0
      vertex 19.4942 34.6775 3
      vertex 19.4942 34.6775 0
    endloop
  endfacet
  facet normal 0.994522 -0.104528 0
    outer loop
      vertex 18.5 30 3
      vertex 18.7513 32.391 0
      vertex 18.7513 32.391 3
    endloop
  endfacet
  facet normal 0.994522 -0.104528 0
    outer loop
      vertex 18.7513 32.391 0
      vertex 18.5 30 3
      vertex 18.5 30 0
    endloop
  endfacet
  facet normal 0.587784 -0.809018 0
    outer loop
      vertex 22.305 38.5462 0
      vertex 24.25 39.9593 3
      vertex 22.305 38.5462 3
    endloop
  endfacet
  facet normal 0.587784 -0.809018 0
    outer loop
      vertex 24.25 39.9593 3
      vertex 22.305 38.5462 0
      vertex 24.25 39.9593 0
    endloop
  endfacet
  facet normal 0.207911 -0.978148 0
    outer loop
      vertex 26.4463 40.9371 0
      vertex 28.7979 41.437 3
      vertex 26.4463 40.9371 3
    endloop
  endfacet
  facet normal 0.207911 -0.978148 0
    outer loop
      vertex 28.7979 41.437 3
      vertex 26.4463 40.9371 0
      vertex 28.7979 41.437 0
    endloop
  endfacet
  facet normal -0.994522 0.104529 0
    outer loop
      vertex 41.2487 27.609 0
      vertex 41.5 30 3
      vertex 41.5 30 0
    endloop
  endfacet
  facet normal -0.994522 0.104529 0
    outer loop
      vertex 41.5 30 3
      vertex 41.2487 27.609 0
      vertex 41.2487 27.609 3
    endloop
  endfacet
  facet normal -0.207912 0.978148 0
    outer loop
      vertex 33.5537 19.0629 0
      vertex 31.2021 18.563 3
      vertex 33.5537 19.0629 3
    endloop
  endfacet
  facet normal -0.207912 0.978148 0
    outer loop
      vertex 31.2021 18.563 3
      vertex 33.5537 19.0629 0
      vertex 31.2021 18.563 0
    endloop
  endfacet
  facet normal -0.587786 0.809016 0
    outer loop
      vertex 37.695 21.4538 0
      vertex 35.75 20.0407 3
      vertex 37.695 21.4538 3
    endloop
  endfacet
  facet normal -0.587786 0.809016 0
    outer loop
      vertex 35.75 20.0407 3
      vertex 37.695 21.4538 0
      vertex 35.75 20.0407 0
    endloop
  endfacet
  facet normal 0.587785 0.809017 -0
    outer loop
      vertex 24.25 20.0407 0
      vertex 22.305 21.4538 3
      vertex 24.25 20.0407 3
    endloop
  endfacet
  facet normal 0.587785 0.809017 0
    outer loop
      vertex 22.305 21.4538 3
      vertex 24.25 20.0407 0
      vertex 22.305 21.4538 0
    endloop
  endfacet
  facet normal 0.207912 0.978147 -0
    outer loop
      vertex 28.7979 18.563 0
      vertex 26.4463 19.0629 3
      vertex 28.7979 18.563 3
    endloop
  endfacet
  facet normal 0.207912 0.978147 0
    outer loop
      vertex 26.4463 19.0629 3
      vertex 28.7979 18.563 0
      vertex 26.4463 19.0629 0
    endloop
  endfacet
  facet normal 0.866025 0.5 0
    outer loop
      vertex 20.6963 23.2405 3
      vertex 19.4942 25.3225 0
      vertex 19.4942 25.3225 3
    endloop
  endfacet
  facet normal 0.866025 0.5 0
    outer loop
      vertex 19.4942 25.3225 0
      vertex 20.6963 23.2405 3
      vertex 20.6963 23.2405 0
    endloop
  endfacet
  facet normal 0.743145 0.66913 0
    outer loop
      vertex 22.305 21.4538 3
      vertex 20.6963 23.2405 0
      vertex 20.6963 23.2405 3
    endloop
  endfacet
  facet normal 0.743145 0.66913 0
    outer loop
      vertex 20.6963 23.2405 0
      vertex 22.305 21.4538 3
      vertex 22.305 21.4538 0
    endloop
  endfacet
  facet normal 0.994522 0.104528 0
    outer loop
      vertex 18.7513 27.609 3
      vertex 18.5 30 0
      vertex 18.5 30 3
    endloop
  endfacet
  facet normal 0.994522 0.104528 0
    outer loop
      vertex 18.5 30 0
      vertex 18.7513 27.609 3
      vertex 18.7513 27.609 0
    endloop
  endfacet
  facet normal -0.406736 0.913546 0
    outer loop
      vertex 35.75 20.0407 0
      vertex 33.5537 19.0629 3
      vertex 35.75 20.0407 3
    endloop
  endfacet
  facet normal -0.406736 0.913546 0
    outer loop
      vertex 33.5537 19.0629 3
      vertex 35.75 20.0407 0
      vertex 33.5537 19.0629 0
    endloop
  endfacet
  facet normal -0.951057 0.309017 0
    outer loop
      vertex 40.5058 25.3225 0
      vertex 41.2487 27.609 3
      vertex 41.2487 27.609 0
    endloop
  endfacet
  facet normal -0.951057 0.309017 0
    outer loop
      vertex 41.2487 27.609 3
      vertex 40.5058 25.3225 0
      vertex 40.5058 25.3225 3
    endloop
  endfacet
  facet normal 0.406736 0.913546 -0
    outer loop
      vertex 26.4463 19.0629 0
      vertex 24.25 20.0407 3
      vertex 26.4463 19.0629 3
    endloop
  endfacet
  facet normal 0.406736 0.913546 0
    outer loop
      vertex 24.25 20.0407 3
      vertex 26.4463 19.0629 0
      vertex 24.25 20.0407 0
    endloop
  endfacet
endsolid OpenSCAD_Model
