solid OpenSCAD_Model
  facet normal 0 1 -0
    outer loop
      vertex 12.8 10 2.8
      vertex 2.8 10 12.8
      vertex 12.8 10 12.8
    endloop
  endfacet
  facet normal 0 1 0
    outer loop
      vertex 2.8 10 12.8
      vertex 12.8 10 2.8
      vertex 2.8 10 2.8
    endloop
  endfacet
  facet normal -0 0 1
    outer loop
      vertex 2.8 10 12.8
      vertex 12.8 -2.22045e-15 12.8
      vertex 12.8 10 12.8
    endloop
  endfacet
  facet normal 0 0 1
    outer loop
      vertex 12.8 -2.22045e-15 12.8
      vertex 2.8 10 12.8
      vertex 2.8 0 12.8
    endloop
  endfacet
  facet normal -2.22045e-16 -1 0
    outer loop
      vertex 2.8 0 2.8
      vertex 12.8 -2.22045e-15 12.8
      vertex 2.8 0 12.8
    endloop
  endfacet
  facet normal -2.22045e-16 -1 -0
    outer loop
      vertex 12.8 -2.22045e-15 12.8
      vertex 2.8 0 2.8
      vertex 12.8 -2.22045e-15 2.8
    endloop
  endfacet
  facet normal 0 0 -1
    outer loop
      vertex 2.8 0 2.8
      vertex 12.8 10 2.8
      vertex 12.8 -2.22045e-15 2.8
    endloop
  endfacet
  facet normal -0 0 -1
    outer loop
      vertex 12.8 10 2.8
      vertex 2.8 0 2.8
      vertex 2.8 10 2.8
    endloop
  endfacet
  facet normal -1 0 0
    outer loop
      vertex 2.8 10 2.8
      vertex 2.8 6.80194 6.93223
      vertex 2.8 10 12.8
    endloop
  endfacet
  facet normal -1 0 0
    outer loop
      vertex 2.8 10 2.8
      vertex 2.8 5.44504 5.85014
      vertex 2.8 6.80194 6.93223
    endloop
  endfacet
  facet normal -1 0 0
    outer loop
      vertex 2.8 0 2.8
      vertex 2.8 5.44504 5.85014
      vertex 2.8 10 2.8
    endloop
  endfacet
  facet normal -1 -0 0
    outer loop
      vertex 2.8 3.75302 6.23634
      vertex 2.8 0 2.8
      vertex 2.8 3 7.8
    endloop
  endfacet
  facet normal -1 -0 0
    outer loop
      vertex 2.8 5.44504 5.85014
      vertex 2.8 0 2.8
      vertex 2.8 3.75302 6.23634
    endloop
  endfacet
  facet normal -1 0 0
    outer loop
      vertex 2.8 6.80194 8.66777
      vertex 2.8 10 12.8
      vertex 2.8 6.80194 6.93223
    endloop
  endfacet
  facet normal -1 0 0
    outer loop
      vertex 2.8 5.44504 9.74986
      vertex 2.8 10 12.8
      vertex 2.8 6.80194 8.66777
    endloop
  endfacet
  facet normal -1 0 0
    outer loop
      vertex 2.8 0 12.8
      vertex 2.8 5.44504 9.74986
      vertex 2.8 3.75302 9.36366
    endloop
  endfacet
  facet normal -1 0 0
    outer loop
      vertex 2.8 0 12.8
      vertex 2.8 3 7.8
      vertex 2.8 0 2.8
    endloop
  endfacet
  facet normal -1 0 0
    outer loop
      vertex 2.8 5.44504 9.74986
      vertex 2.8 0 12.8
      vertex 2.8 10 12.8
    endloop
  endfacet
  facet normal -1 0 0
    outer loop
      vertex 2.8 3 7.8
      vertex 2.8 0 12.8
      vertex 2.8 3.75302 9.36366
    endloop
  endfacet
  facet normal 1 0 0
    outer loop
      vertex 12.8 10 12.8
      vertex 12.8 6.80194 8.66777
      vertex 12.8 10 2.8
    endloop
  endfacet
  facet normal 1 0 0
    outer loop
      vertex 12.8 10 12.8
      vertex 12.8 5.44504 9.74986
      vertex 12.8 6.80194 8.66777
    endloop
  endfacet
  facet normal 1 -0 0
    outer loop
      vertex 12.8 -2.22045e-15 12.8
      vertex 12.8 5.44504 9.74986
      vertex 12.8 10 12.8
    endloop
  endfacet
  facet normal 1 0 0
    outer loop
      vertex 12.8 3.75302 9.36366
      vertex 12.8 -2.22045e-15 12.8
      vertex 12.8 3 7.8
    endloop
  endfacet
  facet normal 1 0 0
    outer loop
      vertex 12.8 5.44504 9.74986
      vertex 12.8 -2.22045e-15 12.8
      vertex 12.8 3.75302 9.36366
    endloop
  endfacet
  facet normal 1 -0 0
    outer loop
      vertex 12.8 6.80194 6.93223
      vertex 12.8 10 2.8
      vertex 12.8 6.80194 8.66777
    endloop
  endfacet
  facet normal 1 -0 0
    outer loop
      vertex 12.8 5.44504 5.85014
      vertex 12.8 10 2.8
      vertex 12.8 6.80194 6.93223
    endloop
  endfacet
  facet normal 1 0 0
    outer loop
      vertex 12.8 -2.22045e-15 2.8
      vertex 12.8 5.44504 5.85014
      vertex 12.8 3.75302 6.23634
    endloop
  endfacet
  facet normal 1 0 0
    outer loop
      vertex 12.8 -2.22045e-15 2.8
      vertex 12.8 3 7.8
      vertex 12.8 -2.22045e-15 12.8
    endloop
  endfacet
  facet normal 1 0 0
    outer loop
      vertex 12.8 5.44504 5.85014
      vertex 12.8 -2.22045e-15 2.8
      vertex 12.8 10 2.8
    endloop
  endfacet
  facet normal 1 0 0
    outer loop
      vertex 12.8 3 7.8
      vertex 12.8 -2.22045e-15 2.8
      vertex 12.8 3.75302 6.23634
    endloop
  endfacet
  facet normal 0 0.900969 0.433884
    outer loop
      vertex 12.8 3 7.8
      vertex 12.8 3.75302 6.23634
      vertex 2.8 3.75302 6.23634
    endloop
  endfacet
  facet normal 4.13784e-08 0.900969 0.433884
    outer loop
      vertex 12.8 3 7.8
      vertex 2.8 3.75302 6.23634
      vertex 2.8 3 7.8
    endloop
  endfacet
  facet normal -0 0.222521 0.974928
    outer loop
      vertex 2.8 5.44504 5.85014
      vertex 12.8 3.75302 6.23634
      vertex 12.8 5.44504 5.85014
    endloop
  endfacet
  facet normal 0 0.222521 0.974928
    outer loop
      vertex 12.8 3.75302 6.23634
      vertex 2.8 5.44504 5.85014
      vertex 2.8 3.75302 6.23634
    endloop
  endfacet
  facet normal 0 -0.62349 -0.781831
    outer loop
      vertex 2.8 5.44504 9.74986
      vertex 12.8 6.80194 8.66777
      vertex 12.8 5.44504 9.74986
    endloop
  endfacet
  facet normal -0 -0.62349 -0.781831
    outer loop
      vertex 12.8 6.80194 8.66777
      vertex 2.8 5.44504 9.74986
      vertex 2.8 6.80194 8.66777
    endloop
  endfacet
  facet normal 0 -0.62349 0.781831
    outer loop
      vertex 2.8 6.80194 6.93223
      vertex 12.8 5.44504 5.85014
      vertex 12.8 6.80194 6.93223
    endloop
  endfacet
  facet normal 0 -0.62349 0.781831
    outer loop
      vertex 12.8 5.44504 5.85014
      vertex 2.8 6.80194 6.93223
      vertex 2.8 5.44504 5.85014
    endloop
  endfacet
  facet normal 0 -1 0
    outer loop
      vertex 2.8 6.80194 6.93223
      vertex 12.8 6.80194 8.66777
      vertex 2.8 6.80194 8.66777
    endloop
  endfacet
  facet normal 0 -1 -0
    outer loop
      vertex 12.8 6.80194 8.66777
      vertex 2.8 6.80194 6.93223
      vertex 12.8 6.80194 6.93223
    endloop
  endfacet
  facet normal 0 0.222521 -0.974928
    outer loop
      vertex 2.8 3.75302 9.36366
      vertex 12.8 5.44504 9.74986
      vertex 12.8 3.75302 9.36366
    endloop
  endfacet
  facet normal 0 0.222521 -0.974928
    outer loop
      vertex 12.8 5.44504 9.74986
      vertex 2.8 3.75302 9.36366
      vertex 2.8 5.44504 9.74986
    endloop
  endfacet
  facet normal 0 0.900969 -0.433884
    outer loop
      vertex 2.8 3.75302 9.36366
      vertex 12.8 3.75302 9.36366
      vertex 2.8 3 7.8
    endloop
  endfacet
  facet normal -4.13784e-08 0.900969 -0.433884
    outer loop
      vertex 12.8 3.75302 9.36366
      vertex 12.8 3 7.8
      vertex 2.8 3 7.8
    endloop
  endfacet
  facet normal 0 1 -0
    outer loop
      vertex 12.8 70 2.8
      vertex 2.8 70 12.8
      vertex 12.8 70 12.8
    endloop
  endfacet
  facet normal 0 1 0
    outer loop
      vertex 2.8 70 12.8
      vertex 12.8 70 2.8
      vertex 2.8 70 2.8
    endloop
  endfacet
  facet normal -0 0 1
    outer loop
      vertex 2.8 70 12.8
      vertex 12.8 60 12.8
      vertex 12.8 70 12.8
    endloop
  endfacet
  facet normal 0 0 1
    outer loop
      vertex 12.8 60 12.8
      vertex 2.8 70 12.8
      vertex 2.8 60 12.8
    endloop
  endfacet
  facet normal 0 -1 0
    outer loop
      vertex 2.8 60 2.8
      vertex 12.8 60 12.8
      vertex 2.8 60 12.8
    endloop
  endfacet
  facet normal 0 -1 -0
    outer loop
      vertex 12.8 60 12.8
      vertex 2.8 60 2.8
      vertex 12.8 60 2.8
    endloop
  endfacet
  facet normal 0 0 -1
    outer loop
      vertex 2.8 60 2.8
      vertex 12.8 70 2.8
      vertex 12.8 60 2.8
    endloop
  endfacet
  facet normal -0 0 -1
    outer loop
      vertex 12.8 70 2.8
      vertex 2.8 60 2.8
      vertex 2.8 70 2.8
    endloop
  endfacet
  facet normal -1 0 0
    outer loop
      vertex 2.8 70 2.8
      vertex 2.8 66.8019 6.93223
      vertex 2.8 70 12.8
    endloop
  endfacet
  facet normal -1 0 0
    outer loop
      vertex 2.8 70 2.8
      vertex 2.8 65.445 5.85014
      vertex 2.8 66.8019 6.93223
    endloop
  endfacet
  facet normal -1 0 0
    outer loop
      vertex 2.8 60 2.8
      vertex 2.8 65.445 5.85014
      vertex 2.8 70 2.8
    endloop
  endfacet
  facet normal -1 -0 0
    outer loop
      vertex 2.8 63.753 6.23634
      vertex 2.8 60 2.8
      vertex 2.8 63 7.8
    endloop
  endfacet
  facet normal -1 -0 0
    outer loop
      vertex 2.8 65.445 5.85014
      vertex 2.8 60 2.8
      vertex 2.8 63.753 6.23634
    endloop
  endfacet
  facet normal -1 0 0
    outer loop
      vertex 2.8 66.8019 8.66777
      vertex 2.8 70 12.8
      vertex 2.8 66.8019 6.93223
    endloop
  endfacet
  facet normal -1 0 0
    outer loop
      vertex 2.8 65.445 9.74986
      vertex 2.8 70 12.8
      vertex 2.8 66.8019 8.66777
    endloop
  endfacet
  facet normal -1 0 0
    outer loop
      vertex 2.8 60 12.8
      vertex 2.8 65.445 9.74986
      vertex 2.8 63.753 9.36366
    endloop
  endfacet
  facet normal -1 0 0
    outer loop
      vertex 2.8 60 12.8
      vertex 2.8 63 7.8
      vertex 2.8 60 2.8
    endloop
  endfacet
  facet normal -1 0 0
    outer loop
      vertex 2.8 65.445 9.74986
      vertex 2.8 60 12.8
      vertex 2.8 70 12.8
    endloop
  endfacet
  facet normal -1 0 0
    outer loop
      vertex 2.8 63 7.8
      vertex 2.8 60 12.8
      vertex 2.8 63.753 9.36366
    endloop
  endfacet
  facet normal 1 0 0
    outer loop
      vertex 12.8 70 12.8
      vertex 12.8 66.8019 8.66777
      vertex 12.8 70 2.8
    endloop
  endfacet
  facet normal 1 0 0
    outer loop
      vertex 12.8 70 12.8
      vertex 12.8 65.445 9.74986
      vertex 12.8 66.8019 8.66777
    endloop
  endfacet
  facet normal 1 -0 0
    outer loop
      vertex 12.8 60 12.8
      vertex 12.8 65.445 9.74986
      vertex 12.8 70 12.8
    endloop
  endfacet
  facet normal 1 0 0
    outer loop
      vertex 12.8 63.753 9.36366
      vertex 12.8 60 12.8
      vertex 12.8 63 7.8
    endloop
  endfacet
  facet normal 1 0 0
    outer loop
      vertex 12.8 65.445 9.74986
      vertex 12.8 60 12.8
      vertex 12.8 63.753 9.36366
    endloop
  endfacet
  facet normal 1 -0 0
    outer loop
      vertex 12.8 66.8019 6.93223
      vertex 12.8 70 2.8
      vertex 12.8 66.8019 8.66777
    endloop
  endfacet
  facet normal 1 -0 0
    outer loop
      vertex 12.8 65.445 5.85014
      vertex 12.8 70 2.8
      vertex 12.8 66.8019 6.93223
    endloop
  endfacet
  facet normal 1 0 0
    outer loop
      vertex 12.8 60 2.8
      vertex 12.8 65.445 5.85014
      vertex 12.8 63.753 6.23634
    endloop
  endfacet
  facet normal 1 0 0
    outer loop
      vertex 12.8 60 2.8
      vertex 12.8 63 7.8
      vertex 12.8 60 12.8
    endloop
  endfacet
  facet normal 1 0 0
    outer loop
      vertex 12.8 65.445 5.85014
      vertex 12.8 60 2.8
      vertex 12.8 70 2.8
    endloop
  endfacet
  facet normal 1 0 0
    outer loop
      vertex 12.8 63 7.8
      vertex 12.8 60 2.8
      vertex 12.8 63.753 6.23634
    endloop
  endfacet
  facet normal 0 0.900969 0.433884
    outer loop
      vertex 12.8 63 7.8
      vertex 12.8 63.753 6.23634
      vertex 2.8 63.753 6.23634
    endloop
  endfacet
  facet normal 4.13784e-08 0.900969 0.433884
    outer loop
      vertex 12.8 63 7.8
      vertex 2.8 63.753 6.23634
      vertex 2.8 63 7.8
    endloop
  endfacet
  facet normal -0 0.222521 0.974928
    outer loop
      vertex 2.8 65.445 5.85014
      vertex 12.8 63.753 6.23634
      vertex 12.8 65.445 5.85014
    endloop
  endfacet
  facet normal 0 0.222521 0.974928
    outer loop
      vertex 12.8 63.753 6.23634
      vertex 2.8 65.445 5.85014
      vertex 2.8 63.753 6.23634
    endloop
  endfacet
  facet normal 0 -0.62349 -0.781831
    outer loop
      vertex 2.8 65.445 9.74986
      vertex 12.8 66.8019 8.66777
      vertex 12.8 65.445 9.74986
    endloop
  endfacet
  facet normal -0 -0.62349 -0.781831
    outer loop
      vertex 12.8 66.8019 8.66777
      vertex 2.8 65.445 9.74986
      vertex 2.8 66.8019 8.66777
    endloop
  endfacet
  facet normal 0 -0.62349 0.781831
    outer loop
      vertex 2.8 66.8019 6.93223
      vertex 12.8 65.445 5.85014
      vertex 12.8 66.8019 6.93223
    endloop
  endfacet
  facet normal 0 -0.62349 0.781831
    outer loop
      vertex 12.8 65.445 5.85014
      vertex 2.8 66.8019 6.93223
      vertex 2.8 65.445 5.85014
    endloop
  endfacet
  facet normal 0 -1 0
    outer loop
      vertex 2.8 66.8019 6.93223
      vertex 12.8 66.8019 8.66777
      vertex 2.8 66.8019 8.66777
    endloop
  endfacet
  facet normal 0 -1 -0
    outer loop
      vertex 12.8 66.8019 8.66777
      vertex 2.8 66.8019 6.93223
      vertex 12.8 66.8019 6.93223
    endloop
  endfacet
  facet normal 0 0.222521 -0.974928
    outer loop
      vertex 2.8 63.753 9.36366
      vertex 12.8 65.445 9.74986
      vertex 12.8 63.753 9.36366
    endloop
  endfacet
  facet normal 0 0.222521 -0.974928
    outer loop
      vertex 12.8 65.445 9.74986
      vertex 2.8 63.753 9.36366
      vertex 2.8 65.445 9.74986
    endloop
  endfacet
  facet normal 0 0.900969 -0.433884
    outer loop
      vertex 2.8 63.753 9.36366
      vertex 12.8 63.753 9.36366
      vertex 2.8 63 7.8
    endloop
  endfacet
  facet normal -4.13784e-08 0.900969 -0.433884
    outer loop
      vertex 12.8 63.753 9.36366
      vertex 12.8 63 7.8
      vertex 2.8 63 7.8
    endloop
  endfacet
  facet normal 0 1 -0
    outer loop
      vertex 107.2 10 2.8
      vertex 97.2 10 12.8
      vertex 107.2 10 12.8
    endloop
  endfacet
  facet normal 0 1 0
    outer loop
      vertex 97.2 10 12.8
      vertex 107.2 10 2.8
      vertex 97.2 10 2.8
    endloop
  endfacet
  facet normal -0 0 1
    outer loop
      vertex 97.2 10 12.8
      vertex 107.2 -2.22045e-15 12.8
      vertex 107.2 10 12.8
    endloop
  endfacet
  facet normal 0 0 1
    outer loop
      vertex 107.2 -2.22045e-15 12.8
      vertex 97.2 10 12.8
      vertex 97.2 0 12.8
    endloop
  endfacet
  facet normal -2.22045e-16 -1 0
    outer loop
      vertex 97.2 0 2.8
      vertex 107.2 -2.22045e-15 12.8
      vertex 97.2 0 12.8
    endloop
  endfacet
  facet normal -2.22045e-16 -1 -0
    outer loop
      vertex 107.2 -2.22045e-15 12.8
      vertex 97.2 0 2.8
      vertex 107.2 -2.22045e-15 2.8
    endloop
  endfacet
  facet normal 0 0 -1
    outer loop
      vertex 97.2 0 2.8
      vertex 107.2 10 2.8
      vertex 107.2 -2.22045e-15 2.8
    endloop
  endfacet
  facet normal -0 0 -1
    outer loop
      vertex 107.2 10 2.8
      vertex 97.2 0 2.8
      vertex 97.2 10 2.8
    endloop
  endfacet
  facet normal -1 0 0
    outer loop
      vertex 97.2 10 2.8
      vertex 97.2 6.80194 6.93223
      vertex 97.2 10 12.8
    endloop
  endfacet
  facet normal -1 0 0
    outer loop
      vertex 97.2 10 2.8
      vertex 97.2 5.44504 5.85014
      vertex 97.2 6.80194 6.93223
    endloop
  endfacet
  facet normal -1 0 0
    outer loop
      vertex 97.2 0 2.8
      vertex 97.2 5.44504 5.85014
      vertex 97.2 10 2.8
    endloop
  endfacet
  facet normal -1 -0 0
    outer loop
      vertex 97.2 3.75302 6.23634
      vertex 97.2 0 2.8
      vertex 97.2 3 7.8
    endloop
  endfacet
  facet normal -1 -0 0
    outer loop
      vertex 97.2 5.44504 5.85014
      vertex 97.2 0 2.8
      vertex 97.2 3.75302 6.23634
    endloop
  endfacet
  facet normal -1 0 0
    outer loop
      vertex 97.2 6.80194 8.66777
      vertex 97.2 10 12.8
      vertex 97.2 6.80194 6.93223
    endloop
  endfacet
  facet normal -1 0 0
    outer loop
      vertex 97.2 5.44504 9.74986
      vertex 97.2 10 12.8
      vertex 97.2 6.80194 8.66777
    endloop
  endfacet
  facet normal -1 0 0
    outer loop
      vertex 97.2 0 12.8
      vertex 97.2 5.44504 9.74986
      vertex 97.2 3.75302 9.36366
    endloop
  endfacet
  facet normal -1 0 0
    outer loop
      vertex 97.2 0 12.8
      vertex 97.2 3 7.8
      vertex 97.2 0 2.8
    endloop
  endfacet
  facet normal -1 0 0
    outer loop
      vertex 97.2 5.44504 9.74986
      vertex 97.2 0 12.8
      vertex 97.2 10 12.8
    endloop
  endfacet
  facet normal -1 0 0
    outer loop
      vertex 97.2 3 7.8
      vertex 97.2 0 12.8
      vertex 97.2 3.75302 9.36366
    endloop
  endfacet
  facet normal 1 0 0
    outer loop
      vertex 107.2 10 12.8
      vertex 107.2 6.80194 8.66777
      vertex 107.2 10 2.8
    endloop
  endfacet
  facet normal 1 0 0
    outer loop
      vertex 107.2 10 12.8
      vertex 107.2 5.44504 9.74986
      vertex 107.2 6.80194 8.66777
    endloop
  endfacet
  facet normal 1 -0 0
    outer loop
      vertex 107.2 -2.22045e-15 12.8
      vertex 107.2 5.44504 9.74986
      vertex 107.2 10 12.8
    endloop
  endfacet
  facet normal 1 0 0
    outer loop
      vertex 107.2 3.75302 9.36366
      vertex 107.2 -2.22045e-15 12.8
      vertex 107.2 3 7.8
    endloop
  endfacet
  facet normal 1 0 0
    outer loop
      vertex 107.2 5.44504 9.74986
      vertex 107.2 -2.22045e-15 12.8
      vertex 107.2 3.75302 9.36366
    endloop
  endfacet
  facet normal 1 -0 0
    outer loop
      vertex 107.2 6.80194 6.93223
      vertex 107.2 10 2.8
      vertex 107.2 6.80194 8.66777
    endloop
  endfacet
  facet normal 1 -0 0
    outer loop
      vertex 107.2 5.44504 5.85014
      vertex 107.2 10 2.8
      vertex 107.2 6.80194 6.93223
    endloop
  endfacet
  facet normal 1 0 0
    outer loop
      vertex 107.2 -2.22045e-15 2.8
      vertex 107.2 5.44504 5.85014
      vertex 107.2 3.75302 6.23634
    endloop
  endfacet
  facet normal 1 0 0
    outer loop
      vertex 107.2 -2.22045e-15 2.8
      vertex 107.2 3 7.8
      vertex 107.2 -2.22045e-15 12.8
    endloop
  endfacet
  facet normal 1 0 0
    outer loop
      vertex 107.2 5.44504 5.85014
      vertex 107.2 -2.22045e-15 2.8
      vertex 107.2 10 2.8
    endloop
  endfacet
  facet normal 1 0 0
    outer loop
      vertex 107.2 3 7.8
      vertex 107.2 -2.22045e-15 2.8
      vertex 107.2 3.75302 6.23634
    endloop
  endfacet
  facet normal 0 0.900969 0.433884
    outer loop
      vertex 107.2 3 7.8
      vertex 107.2 3.75302 6.23634
      vertex 97.2 3.75302 6.23634
    endloop
  endfacet
  facet normal 4.13784e-08 0.900969 0.433884
    outer loop
      vertex 107.2 3 7.8
      vertex 97.2 3.75302 6.23634
      vertex 97.2 3 7.8
    endloop
  endfacet
  facet normal -0 0.222521 0.974928
    outer loop
      vertex 97.2 5.44504 5.85014
      vertex 107.2 3.75302 6.23634
      vertex 107.2 5.44504 5.85014
    endloop
  endfacet
  facet normal 0 0.222521 0.974928
    outer loop
      vertex 107.2 3.75302 6.23634
      vertex 97.2 5.44504 5.85014
      vertex 97.2 3.75302 6.23634
    endloop
  endfacet
  facet normal 0 -0.62349 -0.781831
    outer loop
      vertex 97.2 5.44504 9.74986
      vertex 107.2 6.80194 8.66777
      vertex 107.2 5.44504 9.74986
    endloop
  endfacet
  facet normal -0 -0.62349 -0.781831
    outer loop
      vertex 107.2 6.80194 8.66777
      vertex 97.2 5.44504 9.74986
      vertex 97.2 6.80194 8.66777
    endloop
  endfacet
  facet normal 0 -0.62349 0.781831
    outer loop
      vertex 97.2 6.80194 6.93223
      vertex 107.2 5.44504 5.85014
      vertex 107.2 6.80194 6.93223
    endloop
  endfacet
  facet normal 0 -0.62349 0.781831
    outer loop
      vertex 107.2 5.44504 5.85014
      vertex 97.2 6.80194 6.93223
      vertex 97.2 5.44504 5.85014
    endloop
  endfacet
  facet normal 0 -1 0
    outer loop
      vertex 97.2 6.80194 6.93223
      vertex 107.2 6.80194 8.66777
      vertex 97.2 6.80194 8.66777
    endloop
  endfacet
  facet normal 0 -1 -0
    outer loop
      vertex 107.2 6.80194 8.66777
      vertex 97.2 6.80194 6.93223
      vertex 107.2 6.80194 6.93223
    endloop
  endfacet
  facet normal 0 0.222521 -0.974928
    outer loop
      vertex 97.2 3.75302 9.36366
      vertex 107.2 5.44504 9.74986
      vertex 107.2 3.75302 9.36366
    endloop
  endfacet
  facet normal 0 0.222521 -0.974928
    outer loop
      vertex 107.2 5.44504 9.74986
      vertex 97.2 3.75302 9.36366
      vertex 97.2 5.44504 9.74986
    endloop
  endfacet
  facet normal 0 0.900969 -0.433884
    outer loop
      vertex 97.2 3.75302 9.36366
      vertex 107.2 3.75302 9.36366
      vertex 97.2 3 7.8
    endloop
  endfacet
  facet normal -4.13784e-08 0.900969 -0.433884
    outer loop
      vertex 107.2 3.75302 9.36366
      vertex 107.2 3 7.8
      vertex 97.2 3 7.8
    endloop
  endfacet
  facet normal 0 1 -0
    outer loop
      vertex 107.2 70 2.8
      vertex 97.2 70 12.8
      vertex 107.2 70 12.8
    endloop
  endfacet
  facet normal 0 1 0
    outer loop
      vertex 97.2 70 12.8
      vertex 107.2 70 2.8
      vertex 97.2 70 2.8
    endloop
  endfacet
  facet normal -0 0 1
    outer loop
      vertex 97.2 70 12.8
      vertex 107.2 60 12.8
      vertex 107.2 70 12.8
    endloop
  endfacet
  facet normal 0 0 1
    outer loop
      vertex 107.2 60 12.8
      vertex 97.2 70 12.8
      vertex 97.2 60 12.8
    endloop
  endfacet
  facet normal 0 -1 0
    outer loop
      vertex 97.2 60 2.8
      vertex 107.2 60 12.8
      vertex 97.2 60 12.8
    endloop
  endfacet
  facet normal 0 -1 -0
    outer loop
      vertex 107.2 60 12.8
      vertex 97.2 60 2.8
      vertex 107.2 60 2.8
    endloop
  endfacet
  facet normal 0 0 -1
    outer loop
      vertex 97.2 60 2.8
      vertex 107.2 70 2.8
      vertex 107.2 60 2.8
    endloop
  endfacet
  facet normal -0 0 -1
    outer loop
      vertex 107.2 70 2.8
      vertex 97.2 60 2.8
      vertex 97.2 70 2.8
    endloop
  endfacet
  facet normal -1 0 0
    outer loop
      vertex 97.2 70 2.8
      vertex 97.2 66.8019 6.93223
      vertex 97.2 70 12.8
    endloop
  endfacet
  facet normal -1 0 0
    outer loop
      vertex 97.2 70 2.8
      vertex 97.2 65.445 5.85014
      vertex 97.2 66.8019 6.93223
    endloop
  endfacet
  facet normal -1 0 0
    outer loop
      vertex 97.2 60 2.8
      vertex 97.2 65.445 5.85014
      vertex 97.2 70 2.8
    endloop
  endfacet
  facet normal -1 -0 0
    outer loop
      vertex 97.2 63.753 6.23634
      vertex 97.2 60 2.8
      vertex 97.2 63 7.8
    endloop
  endfacet
  facet normal -1 -0 0
    outer loop
      vertex 97.2 65.445 5.85014
      vertex 97.2 60 2.8
      vertex 97.2 63.753 6.23634
    endloop
  endfacet
  facet normal -1 0 0
    outer loop
      vertex 97.2 66.8019 8.66777
      vertex 97.2 70 12.8
      vertex 97.2 66.8019 6.93223
    endloop
  endfacet
  facet normal -1 0 0
    outer loop
      vertex 97.2 65.445 9.74986
      vertex 97.2 70 12.8
      vertex 97.2 66.8019 8.66777
    endloop
  endfacet
  facet normal -1 0 0
    outer loop
      vertex 97.2 60 12.8
      vertex 97.2 65.445 9.74986
      vertex 97.2 63.753 9.36366
    endloop
  endfacet
  facet normal -1 0 0
    outer loop
      vertex 97.2 60 12.8
      vertex 97.2 63 7.8
      vertex 97.2 60 2.8
    endloop
  endfacet
  facet normal -1 0 0
    outer loop
      vertex 97.2 65.445 9.74986
      vertex 97.2 60 12.8
      vertex 97.2 70 12.8
    endloop
  endfacet
  facet normal -1 0 0
    outer loop
      vertex 97.2 63 7.8
      vertex 97.2 60 12.8
      vertex 97.2 63.753 9.36366
    endloop
  endfacet
  facet normal 1 0 0
    outer loop
      vertex 107.2 70 12.8
      vertex 107.2 66.8019 8.66777
      vertex 107.2 70 2.8
    endloop
  endfacet
  facet normal 1 0 0
    outer loop
      vertex 107.2 70 12.8
      vertex 107.2 65.445 9.74986
      vertex 107.2 66.8019 8.66777
    endloop
  endfacet
  facet normal 1 -0 0
    outer loop
      vertex 107.2 60 12.8
      vertex 107.2 65.445 9.74986
      vertex 107.2 70 12.8
    endloop
  endfacet
  facet normal 1 0 0
    outer loop
      vertex 107.2 63.753 9.36366
      vertex 107.2 60 12.8
      vertex 107.2 63 7.8
    endloop
  endfacet
  facet normal 1 0 0
    outer loop
      vertex 107.2 65.445 9.74986
      vertex 107.2 60 12.8
      vertex 107.2 63.753 9.36366
    endloop
  endfacet
  facet normal 1 -0 0
    outer loop
      vertex 107.2 66.8019 6.93223
      vertex 107.2 70 2.8
      vertex 107.2 66.8019 8.66777
    endloop
  endfacet
  facet normal 1 -0 0
    outer loop
      vertex 107.2 65.445 5.85014
      vertex 107.2 70 2.8
      vertex 107.2 66.8019 6.93223
    endloop
  endfacet
  facet normal 1 0 0
    outer loop
      vertex 107.2 60 2.8
      vertex 107.2 65.445 5.85014
      vertex 107.2 63.753 6.23634
    endloop
  endfacet
  facet normal 1 0 0
    outer loop
      vertex 107.2 60 2.8
      vertex 107.2 63 7.8
      vertex 107.2 60 12.8
    endloop
  endfacet
  facet normal 1 0 0
    outer loop
      vertex 107.2 65.445 5.85014
      vertex 107.2 60 2.8
      vertex 107.2 70 2.8
    endloop
  endfacet
  facet normal 1 0 0
    outer loop
      vertex 107.2 63 7.8
      vertex 107.2 60 2.8
      vertex 107.2 63.753 6.23634
    endloop
  endfacet
  facet normal 0 0.900969 0.433884
    outer loop
      vertex 107.2 63 7.8
      vertex 107.2 63.753 6.23634
      vertex 97.2 63.753 6.23634
    endloop
  endfacet
  facet normal 4.13784e-08 0.900969 0.433884
    outer loop
      vertex 107.2 63 7.8
      vertex 97.2 63.753 6.23634
      vertex 97.2 63 7.8
    endloop
  endfacet
  facet normal -0 0.222521 0.974928
    outer loop
      vertex 97.2 65.445 5.85014
      vertex 107.2 63.753 6.23634
      vertex 107.2 65.445 5.85014
    endloop
  endfacet
  facet normal 0 0.222521 0.974928
    outer loop
      vertex 107.2 63.753 6.23634
      vertex 97.2 65.445 5.85014
      vertex 97.2 63.753 6.23634
    endloop
  endfacet
  facet normal 0 -0.62349 -0.781831
    outer loop
      vertex 97.2 65.445 9.74986
      vertex 107.2 66.8019 8.66777
      vertex 107.2 65.445 9.74986
    endloop
  endfacet
  facet normal -0 -0.62349 -0.781831
    outer loop
      vertex 107.2 66.8019 8.66777
      vertex 97.2 65.445 9.74986
      vertex 97.2 66.8019 8.66777
    endloop
  endfacet
  facet normal 0 -0.62349 0.781831
    outer loop
      vertex 97.2 66.8019 6.93223
      vertex 107.2 65.445 5.85014
      vertex 107.2 66.8019 6.93223
    endloop
  endfacet
  facet normal 0 -0.62349 0.781831
    outer loop
      vertex 107.2 65.445 5.85014
      vertex 97.2 66.8019 6.93223
      vertex 97.2 65.445 5.85014
    endloop
  endfacet
  facet normal 0 -1 0
    outer loop
      vertex 97.2 66.8019 6.93223
      vertex 107.2 66.8019 8.66777
      vertex 97.2 66.8019 8.66777
    endloop
  endfacet
  facet normal 0 -1 -0
    outer loop
      vertex 107.2 66.8019 8.66777
      vertex 97.2 66.8019 6.93223
      vertex 107.2 66.8019 6.93223
    endloop
  endfacet
  facet normal 0 0.222521 -0.974928
    outer loop
      vertex 97.2 63.753 9.36366
      vertex 107.2 65.445 9.74986
      vertex 107.2 63.753 9.36366
    endloop
  endfacet
  facet normal 0 0.222521 -0.974928
    outer loop
      vertex 107.2 65.445 9.74986
      vertex 97.2 63.753 9.36366
      vertex 97.2 65.445 9.74986
    endloop
  endfacet
  facet normal 0 0.900969 -0.433884
    outer loop
      vertex 97.2 63.753 9.36366
      vertex 107.2 63.753 9.36366
      vertex 97.2 63 7.8
    endloop
  endfacet
  facet normal -4.13784e-08 0.900969 -0.433884
    outer loop
      vertex 107.2 63.753 9.36366
      vertex 107.2 63 7.8
      vertex 97.2 63 7.8
    endloop
  endfacet
  facet normal -1 0 0
    outer loop
      vertex 0 22.5 0
      vertex 0 47.5 2.8
      vertex 0 47.5 0
    endloop
  endfacet
  facet normal -1 -0 0
    outer loop
      vertex 0 47.5 2.8
      vertex 0 22.5 0
      vertex 0 22.5 2.8
    endloop
  endfacet
  facet normal -0 0 1
    outer loop
      vertex 0 47.5 2.8
      vertex 2.8 22.5 2.8
      vertex 2.8 47.5 2.8
    endloop
  endfacet
  facet normal 0 0 1
    outer loop
      vertex 2.8 22.5 2.8
      vertex 0 47.5 2.8
      vertex 0 22.5 2.8
    endloop
  endfacet
  facet normal 0 0 1
    outer loop
      vertex 2.8 47.5 2.8
      vertex 107.2 47.5 2.8
      vertex 107.2 70 2.8
    endloop
  endfacet
  facet normal 0 0 1
    outer loop
      vertex 107.2 47.5 2.8
      vertex 2.8 47.5 2.8
      vertex 107.2 22.5 2.8
    endloop
  endfacet
  facet normal 0 0 1
    outer loop
      vertex 2.8 47.5 2.8
      vertex 107.2 70 2.8
      vertex 2.8 70 2.8
    endloop
  endfacet
  facet normal 0 0 1
    outer loop
      vertex 2.8 22.5 2.8
      vertex 107.2 22.5 2.8
      vertex 2.8 47.5 2.8
    endloop
  endfacet
  facet normal 0 0 1
    outer loop
      vertex 107.2 22.5 2.8
      vertex 2.8 22.5 2.8
      vertex 107.2 0 2.8
    endloop
  endfacet
  facet normal 0 0 1
    outer loop
      vertex 107.2 0 2.8
      vertex 2.8 22.5 2.8
      vertex 2.8 0 2.8
    endloop
  endfacet
  facet normal -0 0 1
    outer loop
      vertex 107.2 47.5 2.8
      vertex 110 22.5 2.8
      vertex 110 47.5 2.8
    endloop
  endfacet
  facet normal 0 0 1
    outer loop
      vertex 110 22.5 2.8
      vertex 107.2 47.5 2.8
      vertex 107.2 22.5 2.8
    endloop
  endfacet
  facet normal 1 -0 0
    outer loop
      vertex 110 22.5 2.8
      vertex 110 47.5 0
      vertex 110 47.5 2.8
    endloop
  endfacet
  facet normal 1 0 0
    outer loop
      vertex 110 47.5 0
      vertex 110 22.5 2.8
      vertex 110 22.5 0
    endloop
  endfacet
  facet normal 0 1 -0
    outer loop
      vertex 107.2 70 0
      vertex 2.8 70 2.8
      vertex 107.2 70 2.8
    endloop
  endfacet
  facet normal 0 1 0
    outer loop
      vertex 2.8 70 2.8
      vertex 107.2 70 0
      vertex 2.8 70 0
    endloop
  endfacet
  facet normal 0 0 -1
    outer loop
      vertex 0 22.5 0
      vertex 2.8 47.5 0
      vertex 2.8 22.5 0
    endloop
  endfacet
  facet normal -0 0 -1
    outer loop
      vertex 2.8 47.5 0
      vertex 0 22.5 0
      vertex 0 47.5 0
    endloop
  endfacet
  facet normal 0 0 -1
    outer loop
      vertex 2.8 22.5 0
      vertex 107.2 22.5 0
      vertex 107.2 0 0
    endloop
  endfacet
  facet normal 0 0 -1
    outer loop
      vertex 107.2 22.5 0
      vertex 2.8 22.5 0
      vertex 107.2 47.5 0
    endloop
  endfacet
  facet normal 0 0 -1
    outer loop
      vertex 2.8 22.5 0
      vertex 107.2 0 0
      vertex 2.8 0 0
    endloop
  endfacet
  facet normal 0 0 -1
    outer loop
      vertex 2.8 47.5 0
      vertex 107.2 47.5 0
      vertex 2.8 22.5 0
    endloop
  endfacet
  facet normal 0 0 -1
    outer loop
      vertex 107.2 47.5 0
      vertex 2.8 47.5 0
      vertex 107.2 70 0
    endloop
  endfacet
  facet normal -0 0 -1
    outer loop
      vertex 107.2 70 0
      vertex 2.8 47.5 0
      vertex 2.8 70 0
    endloop
  endfacet
  facet normal 0 0 -1
    outer loop
      vertex 107.2 22.5 0
      vertex 110 47.5 0
      vertex 110 22.5 0
    endloop
  endfacet
  facet normal -0 0 -1
    outer loop
      vertex 110 47.5 0
      vertex 107.2 22.5 0
      vertex 107.2 47.5 0
    endloop
  endfacet
  facet normal 0 -1 0
    outer loop
      vertex 2.8 0 0
      vertex 107.2 0 2.8
      vertex 2.8 0 2.8
    endloop
  endfacet
  facet normal 0 -1 -0
    outer loop
      vertex 107.2 0 2.8
      vertex 2.8 0 0
      vertex 107.2 0 0
    endloop
  endfacet
  facet normal -1 0 0
    outer loop
      vertex 2.8 0 0
      vertex 2.8 22.5 2.8
      vertex 2.8 22.5 0
    endloop
  endfacet
  facet normal -1 -0 0
    outer loop
      vertex 2.8 22.5 2.8
      vertex 2.8 0 0
      vertex 2.8 0 2.8
    endloop
  endfacet
  facet normal 0 -1 0
    outer loop
      vertex 0 22.5 0
      vertex 2.8 22.5 2.8
      vertex 0 22.5 2.8
    endloop
  endfacet
  facet normal 0 -1 -0
    outer loop
      vertex 2.8 22.5 2.8
      vertex 0 22.5 0
      vertex 2.8 22.5 0
    endloop
  endfacet
  facet normal -1 0 0
    outer loop
      vertex 2.8 47.5 0
      vertex 2.8 70 2.8
      vertex 2.8 70 0
    endloop
  endfacet
  facet normal -1 -0 0
    outer loop
      vertex 2.8 70 2.8
      vertex 2.8 47.5 0
      vertex 2.8 47.5 2.8
    endloop
  endfacet
  facet normal 0 1 -0
    outer loop
      vertex 2.8 47.5 0
      vertex 0 47.5 2.8
      vertex 2.8 47.5 2.8
    endloop
  endfacet
  facet normal 0 1 0
    outer loop
      vertex 0 47.5 2.8
      vertex 2.8 47.5 0
      vertex 0 47.5 0
    endloop
  endfacet
  facet normal 1 -0 0
    outer loop
      vertex 107.2 0 2.8
      vertex 107.2 22.5 0
      vertex 107.2 22.5 2.8
    endloop
  endfacet
  facet normal 1 0 0
    outer loop
      vertex 107.2 22.5 0
      vertex 107.2 0 2.8
      vertex 107.2 0 0
    endloop
  endfacet
  facet normal 0 -1 0
    outer loop
      vertex 107.2 22.5 0
      vertex 110 22.5 2.8
      vertex 107.2 22.5 2.8
    endloop
  endfacet
  facet normal 0 -1 -0
    outer loop
      vertex 110 22.5 2.8
      vertex 107.2 22.5 0
      vertex 110 22.5 0
    endloop
  endfacet
  facet normal 1 -0 0
    outer loop
      vertex 107.2 47.5 2.8
      vertex 107.2 70 0
      vertex 107.2 70 2.8
    endloop
  endfacet
  facet normal 1 0 0
    outer loop
      vertex 107.2 70 0
      vertex 107.2 47.5 2.8
      vertex 107.2 47.5 0
    endloop
  endfacet
  facet normal 0 1 -0
    outer loop
      vertex 110 47.5 0
      vertex 107.2 47.5 2.8
      vertex 110 47.5 2.8
    endloop
  endfacet
  facet normal 0 1 0
    outer loop
      vertex 107.2 47.5 2.8
      vertex 110 47.5 0
      vertex 107.2 47.5 0
    endloop
  endfacet
endsolid OpenSCAD_Model
